<?xml version="1.0" encoding="utf-8"?>
<?xml-stylesheet type="text/xsl" href="rss1.xsl"?>
<rss version="2.0" xmlns:atom="http://www.w3.org/2005/Atom" xmlns:content="http://purl.org/rss/1.0/modules/content/" xmlns:dc="http://purl.org/dc/elements/1.1/" xmlns:media="http://search.yahoo.com/mrss/">
<channel>
 <title>Getty</title>
 <link>http://www.gettyimg.com/</link>
 <atom:link href="http://www.gettyimg.com/" rel="self" type="application/rss+xml" />

 
                <item>
                <title><![CDATA[【UPSCALED】David Guetta - Love Is Gone (AI Upscaled 1080P)]]></title>
                <link><![CDATA[https://sharemania.us/threads/david-guetta-love-is-gone-ai-upscaled-1080p.222169/]]></link>
                <description><![CDATA[<article>
<blockquote class="messageText SelectQuoteContainer ugc baseHtml">
<a href="https://postimg.cc/Lqhf6d8z" target="_blank" class="externalLink" rel="nofollow"><img src="https://i.postimg.cc/Lqhf6d8z/David-Guetta-Love-Is-Gone-1080-P-Remastered-mp4-thumbs-2023-06-06-23-42-21.jpg" class="bbCodeImage LbImage" alt="[​IMG]" data-url="https://i.postimg.cc/Lqhf6d8z/David-Guetta-Love-Is-Gone-1080-P-Remastered-mp4-thumbs-2023-06-06-23-42-21.jpg"></a><br>
<br>
<div class="bbCodeBlock bbCodeVfcHH HiddenContent">
<div class="attribution type">Hidden Content:</div>
<blockquote>You must either reply or click 'Like' to see the hidden information contained here.</blockquote>
</div>
<div class="messageTextEndMarker">&nbsp;</div>
</blockquote>
</article>]]></description>
                <author><![CDATA[djalf77]]></author>
                </item>

                
                <item>
                <title><![CDATA[【Albums (lossy)】Dolby Atmos - Dominic Fike - Sunburn [PRE-RELEASE] [E-AC3-JOC | 5.1 | 16bit/48kHz | 768kbits]]]></title>
                <link><![CDATA[https://sharemania.us/threads/dominic-fike-sunburn-pre-release-e-ac3-joc-5-1-16bit-48khz-768kbits.222167/]]></link>
                <description><![CDATA[<article>
<blockquote class="messageText SelectQuoteContainer ugc baseHtml">
<img src="https://a5.mzstatic.com/us/r1000/0/Music116/v4/01/08/95/010895cf-7fb1-65ab-f39d-e29d192de47d/196871158244.jpg" class="bbCodeImage LbImage" alt="[​IMG]" data-url="https://a5.mzstatic.com/us/r1000/0/Music116/v4/01/08/95/010895cf-7fb1-65ab-f39d-e29d192de47d/196871158244.jpg" style=""><br>
<br>
<b>Album: Sunburn<br>
Artist: Dominic Fike<br>
Genre: Alternative<br>
Release date: 07/07/2023<br>
<b>Format: .m4a E-AC3-JOC (Dolby Digital Plus with Dolby Atmos)</b></b><br>
<br>
<div class="bbCodeBlock bbCodeVfcHH HiddenContent">
<div class="attribution type">Hidden Content:</div>
<blockquote>You must reply before you can see the hidden data contained here.</blockquote>
</div>
<div class="messageTextEndMarker">&nbsp;</div>
</blockquote>
</article>]]></description>
                <author><![CDATA[SonMaxime]]></author>
                </item>

                
                <item>
                <title><![CDATA[【BLU-RAY】BDRiP - ZZ Top - Live from Texas [1080p, 5.1 DTS-HD, 5.1 DD, 2.0 LPCM] {MKV}]]></title>
                <link><![CDATA[https://sharemania.us/threads/zz-top-live-from-texas-1080p-5-1-dts-hd-5-1-dd-2-0-lpcm-mkv.222171/]]></link>
                <description><![CDATA[<article>
<blockquote class="messageText SelectQuoteContainer ugc baseHtml">
<img src="https://i.postimg.cc/Qthy35YQ/rsz-12front.jpg" class="bbCodeImage LbImage" alt="[​IMG]" data-url="https://i.postimg.cc/Qthy35YQ/rsz-12front.jpg" style=""><br>
<span style="font-size: 12px">
<div class="bbCodeBlock bbCodeQuote">
<aside>
<blockquote class="quoteContainer"><div class="quote">Live from Texas is a live Blu-ray by ZZ Top. It was recorded on November 1, 2007, at the Nokia Theatre in Grand Prairie, Texas, and released on June 24, 2008, by Eagle Rock Records.</div><div class="quoteExpand">Click to expand...</div></blockquote>
</aside>
</div></span><br>
<br>
<div class="bbCodeBlock bbCodeCode">
<div class="type">Code:</div>
<pre>1. Got Me Under Pressure
2. Waitin' For The Bus
3. Jesus Just Left Chicago
4. I'm Bad, I'm Nationwide
5. Pin Cushion
6. Cheap Sunglasses
7. Pearl Necklace
8. Heard It On The X
9. Just Got Paid
10. Rough Boy
11. Blue Jean Blues
12. Gimme All Your Lovin'
13. Sharp Dressed Man
14. Legs
15. Tube Snake Boogie
16. La Grange
17. Tush

Bonus Features:
18. Poker Game
19. Dallas Show Day
20. Photo Shoot
21. Foxey Lady
</pre>
</div>This is the full Bluray ripped to MKV files.<br>
The Audio is available as 5.1 DTS-HD Surround, 5.1 DD Surround and 2.0 LPCM Stereo Sound.<br>
The Scans of the Booklet are not very good, sorry for that :/<br>
<br>
<div class="ToggleTriggerAnchor bbCodeSpoilerContainer">
<button type="button" class="button bbCodeSpoilerButton ToggleTrigger Tooltip JsOnly" data-target="> .SpoilerTarget"><span>Spoiler: <span class="SpoilerTitle">Full Mediainfo for all files:</span></span></button>
<div class="SpoilerTarget bbCodeSpoilerText">General<br>
Unique ID : 316871832374156403905998293286674892821 (0xEE634B886956FFF69D979FEBC04E0815)<br>
Complete name : D:\Video\ZZTOP\Split\1\Blue Jean Blues.mkv<br>
Format : Matroska<br>
Format version : Version 4<br>
File size : 855 MiB<br>
Duration : 5 min 7 s<br>
Overall bit rate mode : Variable<br>
Overall bit rate : 23.3 Mb/s<br>
Movie name : Blue Jean Blues<br>
Track name/Position : 11<br>
Encoded date : UTC 2023-06-06 20:45:25<br>
Writing application : mkvmerge v51.0.0 ('I Wish') 64-bit<br>
Writing library : libebml v1.4.0 + libmatroska v1.6.2<br>
Original source form : Blu-ray<br>
Comment : Bluray Rip by Freaky2003 (Sharemania)<br>
ARTIST : ZZ Top<br>
CATALOGID : ST2BD18004, ST2BD18004<br>
COUNTRY : Brazil<br>
DATE_RECORDED : 2008<br>
DISCOGS_RELEASE_ID : 14388454<br>
GENRE : Rock<br>
PUBLISHER : ST2 Music, Eagle Vision<br>
STYLE : Blues Rock, Southern Rock, Hard Rock<br>
WWW : <a href="https://www.discogs.com/release/14388454-ZZ-Top-Live-From-Texas" target="_blank" class="externalLink" rel="nofollow">https://www.discogs.com/release/14388454-ZZ-Top-Live-From-Texas</a><br>
<br>
Video<br>
ID : 1<br>
ID in the original source medium : 4113 (0x1011)<br>
Format : AVC<br>
Format/Info : Advanced Video Codec<br>
Format profile : High@L4.1<br>
Format settings : CABAC / 4 Ref Frames<br>
Format settings, CABAC : Yes<br>
Format settings, Reference frames : 4 frames<br>
Codec ID : V_MPEG4/ISO/AVC<br>
Duration : 5 min 7 s<br>
Bit rate mode : Variable<br>
Bit rate : 14.0 Mb/s<br>
Maximum bit rate : 33.0 Mb/s<br>
Width : 1 920 pixels<br>
Height : 1 080 pixels<br>
Display aspect ratio : 16:9<br>
Frame rate mode : Constant<br>
Frame rate : 29.970 (30000/1001) FPS<br>
Color space : YUV<br>
Chroma subsampling : 4:2:0<br>
Bit depth : 8 bits<br>
Scan type : MBAFF<br>
Scan type, store method : Interleaved fields<br>
Scan order : Top Field First<br>
Bits/(Pixel*Frame) : 0.226<br>
Stream size : 515 MiB (60%)<br>
Language : English<br>
Default : No<br>
Forced : No<br>
Color range : Limited<br>
Color primaries : BT.709<br>
Transfer characteristics : BT.709<br>
Matrix coefficients : BT.709<br>
Original source medium : Blu-ray<br>
<br>
Audio #1<br>
ID : 2<br>
ID in the original source medium : 4352 (0x1100)<br>
Format : PCM<br>
Format settings : Little / Signed<br>
Codec ID : A_PCM/INT/LIT<br>
Duration : 5 min 7 s<br>
Bit rate mode : Constant<br>
Bit rate : 2 304 kb/s<br>
Channel(s) : 2 channels<br>
Sampling rate : 48.0 kHz<br>
Frame rate : 30.000 FPS (1600 SPF)<br>
Bit depth : 24 bits<br>
Delay relative to video : 91 ms<br>
Stream size : 84.5 MiB (10%)<br>
Title : Stereo<br>
Language : English<br>
Default : Yes<br>
Forced : No<br>
Original source medium : Blu-ray<br>
<br>
Audio #2<br>
ID : 3<br>
ID in the original source medium : 4353 (0x1101)<br>
Format : AC-3<br>
Format/Info : Audio Coding 3<br>
Commercial name : Dolby Digital<br>
Codec ID : A_AC3<br>
Duration : 5 min 7 s<br>
Bit rate mode : Constant<br>
Bit rate : 640 kb/s<br>
Channel(s) : 6 channels<br>
Channel layout : L R C LFE Ls Rs<br>
Sampling rate : 48.0 kHz<br>
Frame rate : 31.250 FPS (1536 SPF)<br>
Compression mode : Lossy<br>
Delay relative to video : 83 ms<br>
Stream size : 23.5 MiB (3%)<br>
Title : Surround 5.1<br>
Language : English<br>
Service kind : Complete Main<br>
Default : No<br>
Forced : No<br>
Original source medium : Blu-ray<br>
<br>
Audio #3<br>
ID : 4<br>
ID in the original source medium : 4354 (0x1102)<br>
Format : DTS XLL<br>
Format/Info : Digital Theater Systems<br>
Commercial name : DTS-HD Master Audio<br>
Codec ID : A_DTS<br>
Duration : 5 min 7 s<br>
Bit rate mode : Variable<br>
Bit rate : 4 824 kb/s<br>
Channel(s) : 6 channels<br>
Channel layout : C L R Ls Rs LFE<br>
Sampling rate : 48.0 kHz<br>
Frame rate : 93.750 FPS (512 SPF)<br>
Bit depth : 24 bits<br>
Compression mode : Lossless<br>
Delay relative to video : 72 ms<br>
Stream size : 177 MiB (21%)<br>
Title : Surround 5.1<br>
Language : English<br>
Default : No<br>
Forced : No<br>
Original source medium : Blu-ray<br>
<br>
Audio #4<br>
ID : 5<br>
ID in the original source medium : 4354 (0x1102)<br>
Format : DTS<br>
Format/Info : Digital Theater Systems<br>
Codec ID : A_DTS<br>
Duration : 5 min 7 s<br>
Bit rate mode : Constant<br>
Bit rate : 1 509 kb/s<br>
Channel(s) : 6 channels<br>
Channel layout : C L R Ls Rs LFE<br>
Sampling rate : 48.0 kHz<br>
Frame rate : 93.750 FPS (512 SPF)<br>
Bit depth : 24 bits<br>
Compression mode : Lossy<br>
Delay relative to video : 72 ms<br>
Stream size : 55.4 MiB (6%)<br>
Title : Surround 5.1<br>
Language : English<br>
Default : No<br>
Forced : No<br>
Original source medium : Blu-ray<br>
<br>
Menu<br>
00:00:00.000 : en:Chapter 11<br>
<br>
General<br>
Unique ID : 154155897398724867481156884985217102706 (0x73F9588C461AEBE172B489F2D5393372)<br>
Complete name : D:\Video\ZZTOP\Split\1\Cheap Sunglasses.mkv<br>
Format : Matroska<br>
Format version : Version 4<br>
File size : 963 MiB<br>
Duration : 4 min 50 s<br>
Overall bit rate mode : Variable<br>
Overall bit rate : 27.8 Mb/s<br>
Movie name : Cheap Sunglasses<br>
Track name/Position : 6<br>
Encoded date : UTC 2023-06-06 20:45:25<br>
Writing application : mkvmerge v51.0.0 ('I Wish') 64-bit<br>
Writing library : libebml v1.4.0 + libmatroska v1.6.2<br>
Original source form : Blu-ray<br>
Comment : Bluray Rip by Freaky2003 (Sharemania)<br>
ARTIST : ZZ Top<br>
CATALOGID : ST2BD18004, ST2BD18004<br>
COUNTRY : Brazil<br>
DATE_RECORDED : 2008<br>
DISCOGS_RELEASE_ID : 14388454<br>
GENRE : Rock<br>
PUBLISHER : ST2 Music, Eagle Vision<br>
STYLE : Blues Rock, Southern Rock, Hard Rock<br>
WWW : <a href="https://www.discogs.com/release/14388454-ZZ-Top-Live-From-Texas" target="_blank" class="externalLink" rel="nofollow">https://www.discogs.com/release/14388454-ZZ-Top-Live-From-Texas</a><br>
<br>
Video<br>
ID : 1<br>
ID in the original source medium : 4113 (0x1011)<br>
Format : AVC<br>
Format/Info : Advanced Video Codec<br>
Format profile : High@L4.1<br>
Format settings : CABAC / 4 Ref Frames<br>
Format settings, CABAC : Yes<br>
Format settings, Reference frames : 4 frames<br>
Codec ID : V_MPEG4/ISO/AVC<br>
Duration : 4 min 50 s<br>
Bit rate mode : Variable<br>
Bit rate : 18.2 Mb/s<br>
Maximum bit rate : 33.0 Mb/s<br>
Width : 1 920 pixels<br>
Height : 1 080 pixels<br>
Display aspect ratio : 16:9<br>
Frame rate mode : Constant<br>
Frame rate : 29.970 (30000/1001) FPS<br>
Color space : YUV<br>
Chroma subsampling : 4:2:0<br>
Bit depth : 8 bits<br>
Scan type : MBAFF<br>
Scan type, store method : Interleaved fields<br>
Scan order : Top Field First<br>
Bits/(Pixel*Frame) : 0.292<br>
Stream size : 629 MiB (65%)<br>
Language : English<br>
Default : No<br>
Forced : No<br>
Color range : Limited<br>
Color primaries : BT.709<br>
Transfer characteristics : BT.709<br>
Matrix coefficients : BT.709<br>
Original source medium : Blu-ray<br>
<br>
Audio #1<br>
ID : 2<br>
ID in the original source medium : 4352 (0x1100)<br>
Format : PCM<br>
Format settings : Little / Signed<br>
Codec ID : A_PCM/INT/LIT<br>
Duration : 4 min 50 s<br>
Bit rate mode : Constant<br>
Bit rate : 2 304 kb/s<br>
Channel(s) : 2 channels<br>
Sampling rate : 48.0 kHz<br>
Frame rate : 30.000 FPS (1600 SPF)<br>
Bit depth : 24 bits<br>
Delay relative to video : 77 ms<br>
Stream size : 79.7 MiB (8%)<br>
Title : Stereo<br>
Language : English<br>
Default : Yes<br>
Forced : No<br>
Original source medium : Blu-ray<br>
<br>
Audio #2<br>
ID : 3<br>
ID in the original source medium : 4353 (0x1101)<br>
Format : AC-3<br>
Format/Info : Audio Coding 3<br>
Commercial name : Dolby Digital<br>
Codec ID : A_AC3<br>
Duration : 4 min 50 s<br>
Bit rate mode : Constant<br>
Bit rate : 640 kb/s<br>
Channel(s) : 6 channels<br>
Channel layout : L R C LFE Ls Rs<br>
Sampling rate : 48.0 kHz<br>
Frame rate : 31.250 FPS (1536 SPF)<br>
Compression mode : Lossy<br>
Delay relative to video : 86 ms<br>
Stream size : 22.1 MiB (2%)<br>
Title : Surround 5.1<br>
Language : English<br>
Service kind : Complete Main<br>
Default : No<br>
Forced : No<br>
Original source medium : Blu-ray<br>
<br>
Audio #3<br>
ID : 4<br>
ID in the original source medium : 4354 (0x1102)<br>
Format : DTS XLL<br>
Format/Info : Digital Theater Systems<br>
Commercial name : DTS-HD Master Audio<br>
Codec ID : A_DTS<br>
Duration : 4 min 50 s<br>
Bit rate mode : Variable<br>
Bit rate : 5 216 kb/s<br>
Channel(s) : 6 channels<br>
Channel layout : C L R Ls Rs LFE<br>
Sampling rate : 48.0 kHz<br>
Frame rate : 93.750 FPS (512 SPF)<br>
Bit depth : 24 bits<br>
Compression mode : Lossless<br>
Delay relative to video : 75 ms<br>
Stream size : 180 MiB (19%)<br>
Title : Surround 5.1<br>
Language : English<br>
Default : No<br>
Forced : No<br>
Original source medium : Blu-ray<br>
<br>
Audio #4<br>
ID : 5<br>
ID in the original source medium : 4354 (0x1102)<br>
Format : DTS<br>
Format/Info : Digital Theater Systems<br>
Codec ID : A_DTS<br>
Duration : 4 min 50 s<br>
Bit rate mode : Constant<br>
Bit rate : 1 509 kb/s<br>
Channel(s) : 6 channels<br>
Channel layout : C L R Ls Rs LFE<br>
Sampling rate : 48.0 kHz<br>
Frame rate : 93.750 FPS (512 SPF)<br>
Bit depth : 24 bits<br>
Compression mode : Lossy<br>
Delay relative to video : 75 ms<br>
Stream size : 52.2 MiB (5%)<br>
Title : Surround 5.1<br>
Language : English<br>
Default : No<br>
Forced : No<br>
Original source medium : Blu-ray<br>
<br>
Menu<br>
00:00:00.000 : en:Chapter 06<br>
<br>
General<br>
Unique ID : 192422427894313155335431442802450111853 (0x90C3362A74DEC14A669CAE4804AC1D6D)<br>
Complete name : D:\Video\ZZTOP\Split\1\Gimme All Your Lovin'.mkv<br>
Format : Matroska<br>
Format version : Version 4<br>
File size : 851 MiB<br>
Duration : 4 min 29 s<br>
Overall bit rate mode : Variable<br>
Overall bit rate : 26.5 Mb/s<br>
Movie name : Gimme All Your Lovin'<br>
Track name/Position : 12<br>
Encoded date : UTC 2023-06-06 20:45:25<br>
Writing application : mkvmerge v51.0.0 ('I Wish') 64-bit<br>
Writing library : libebml v1.4.0 + libmatroska v1.6.2<br>
Original source form : Blu-ray<br>
Comment : Bluray Rip by Freaky2003 (Sharemania)<br>
ARTIST : ZZ Top<br>
CATALOGID : ST2BD18004, ST2BD18004<br>
COUNTRY : Brazil<br>
DATE_RECORDED : 2008<br>
DISCOGS_RELEASE_ID : 14388454<br>
GENRE : Rock<br>
PUBLISHER : ST2 Music, Eagle Vision<br>
STYLE : Blues Rock, Southern Rock, Hard Rock<br>
WWW : <a href="https://www.discogs.com/release/14388454-ZZ-Top-Live-From-Texas" target="_blank" class="externalLink" rel="nofollow">https://www.discogs.com/release/14388454-ZZ-Top-Live-From-Texas</a><br>
<br>
Video<br>
ID : 1<br>
ID in the original source medium : 4113 (0x1011)<br>
Format : AVC<br>
Format/Info : Advanced Video Codec<br>
Format profile : High@L4.1<br>
Format settings : CABAC / 4 Ref Frames<br>
Format settings, CABAC : Yes<br>
Format settings, Reference frames : 4 frames<br>
Format settings, GOP : M=3, N=30<br>
Codec ID : V_MPEG4/ISO/AVC<br>
Duration : 4 min 29 s<br>
Bit rate mode : Variable<br>
Bit rate : 16.9 Mb/s<br>
Maximum bit rate : 33.0 Mb/s<br>
Width : 1 920 pixels<br>
Height : 1 080 pixels<br>
Display aspect ratio : 16:9<br>
Frame rate mode : Constant<br>
Frame rate : 29.970 (30000/1001) FPS<br>
Color space : YUV<br>
Chroma subsampling : 4:2:0<br>
Bit depth : 8 bits<br>
Scan type : MBAFF<br>
Scan type, store method : Interleaved fields<br>
Scan order : Top Field First<br>
Bits/(Pixel*Frame) : 0.272<br>
Stream size : 543 MiB (64%)<br>
Language : English<br>
Default : No<br>
Forced : No<br>
Color range : Limited<br>
Color primaries : BT.709<br>
Transfer characteristics : BT.709<br>
Matrix coefficients : BT.709<br>
Original source medium : Blu-ray<br>
<br>
Audio #1<br>
ID : 2<br>
ID in the original source medium : 4352 (0x1100)<br>
Format : PCM<br>
Format settings : Little / Signed<br>
Codec ID : A_PCM/INT/LIT<br>
Duration : 4 min 29 s<br>
Bit rate mode : Constant<br>
Bit rate : 2 304 kb/s<br>
Channel(s) : 2 channels<br>
Sampling rate : 48.0 kHz<br>
Frame rate : 30.000 FPS (1600 SPF)<br>
Bit depth : 24 bits<br>
Delay relative to video : 83 ms<br>
Stream size : 74.0 MiB (9%)<br>
Title : Stereo<br>
Language : English<br>
Default : Yes<br>
Forced : No<br>
Original source medium : Blu-ray<br>
<br>
Audio #2<br>
ID : 3<br>
ID in the original source medium : 4353 (0x1101)<br>
Format : AC-3<br>
Format/Info : Audio Coding 3<br>
Commercial name : Dolby Digital<br>
Codec ID : A_AC3<br>
Duration : 4 min 29 s<br>
Bit rate mode : Constant<br>
Bit rate : 640 kb/s<br>
Channel(s) : 6 channels<br>
Channel layout : L R C LFE Ls Rs<br>
Sampling rate : 48.0 kHz<br>
Frame rate : 31.250 FPS (1536 SPF)<br>
Compression mode : Lossy<br>
Delay relative to video : 86 ms<br>
Stream size : 20.6 MiB (2%)<br>
Title : Surround 5.1<br>
Language : English<br>
Service kind : Complete Main<br>
Default : No<br>
Forced : No<br>
Original source medium : Blu-ray<br>
<br>
Audio #3<br>
ID : 4<br>
ID in the original source medium : 4354 (0x1102)<br>
Format : DTS XLL<br>
Format/Info : Digital Theater Systems<br>
Commercial name : DTS-HD Master Audio<br>
Codec ID : A_DTS<br>
Duration : 4 min 29 s<br>
Bit rate mode : Variable<br>
Bit rate : 5 138 kb/s<br>
Channel(s) : 6 channels<br>
Channel layout : C L R Ls Rs LFE<br>
Sampling rate : 48.0 kHz<br>
Frame rate : 93.750 FPS (512 SPF)<br>
Bit depth : 24 bits<br>
Compression mode : Lossless<br>
Delay relative to video : 75 ms<br>
Stream size : 165 MiB (19%)<br>
Title : Surround 5.1<br>
Language : English<br>
Default : No<br>
Forced : No<br>
Original source medium : Blu-ray<br>
<br>
Audio #4<br>
ID : 5<br>
ID in the original source medium : 4354 (0x1102)<br>
Format : DTS<br>
Format/Info : Digital Theater Systems<br>
Codec ID : A_DTS<br>
Duration : 4 min 29 s<br>
Bit rate mode : Constant<br>
Bit rate : 1 509 kb/s<br>
Channel(s) : 6 channels<br>
Channel layout : C L R Ls Rs LFE<br>
Sampling rate : 48.0 kHz<br>
Frame rate : 93.750 FPS (512 SPF)<br>
Bit depth : 24 bits<br>
Compression mode : Lossy<br>
Delay relative to video : 75 ms<br>
Stream size : 48.5 MiB (6%)<br>
Title : Surround 5.1<br>
Language : English<br>
Default : No<br>
Forced : No<br>
Original source medium : Blu-ray<br>
<br>
Menu<br>
00:00:00.000 : en:Chapter 12<br>
<br>
General<br>
Unique ID : 43211086504523153654374248813438931749 (0x2082270D0C755467A1200287F8BB9325)<br>
Complete name : D:\Video\ZZTOP\Split\1\Got Me Under Pressure.mkv<br>
Format : Matroska<br>
Format version : Version 4<br>
File size : 904 MiB<br>
Duration : 4 min 25 s<br>
Overall bit rate mode : Variable<br>
Overall bit rate : 28.6 Mb/s<br>
Movie name : Got Me Under Pressure<br>
Track name/Position : 1<br>
Encoded date : UTC 2023-06-06 20:45:25<br>
Writing application : mkvmerge v51.0.0 ('I Wish') 64-bit<br>
Writing library : libebml v1.4.0 + libmatroska v1.6.2<br>
Original source form : Blu-ray<br>
Comment : Bluray Rip by Freaky2003 (Sharemania)<br>
ARTIST : ZZ Top<br>
CATALOGID : ST2BD18004, ST2BD18004<br>
COUNTRY : Brazil<br>
DATE_RECORDED : 2008<br>
DISCOGS_RELEASE_ID : 14388454<br>
GENRE : Rock<br>
PUBLISHER : ST2 Music, Eagle Vision<br>
STYLE : Blues Rock, Southern Rock, Hard Rock<br>
WWW : <a href="https://www.discogs.com/release/14388454-ZZ-Top-Live-From-Texas" target="_blank" class="externalLink" rel="nofollow">https://www.discogs.com/release/14388454-ZZ-Top-Live-From-Texas</a><br>
<br>
Video<br>
ID : 1<br>
ID in the original source medium : 4113 (0x1011)<br>
Format : AVC<br>
Format/Info : Advanced Video Codec<br>
Format profile : High@L4.1<br>
Format settings : CABAC / 4 Ref Frames<br>
Format settings, CABAC : Yes<br>
Format settings, Reference frames : 4 frames<br>
Format settings, GOP : M=3, N=30<br>
Codec ID : V_MPEG4/ISO/AVC<br>
Duration : 4 min 25 s<br>
Bit rate mode : Variable<br>
Bit rate : 18.8 Mb/s<br>
Maximum bit rate : 33.0 Mb/s<br>
Width : 1 920 pixels<br>
Height : 1 080 pixels<br>
Display aspect ratio : 16:9<br>
Frame rate mode : Constant<br>
Frame rate : 29.970 (30000/1001) FPS<br>
Color space : YUV<br>
Chroma subsampling : 4:2:0<br>
Bit depth : 8 bits<br>
Scan type : MBAFF<br>
Scan type, store method : Interleaved fields<br>
Scan order : Top Field First<br>
Bits/(Pixel*Frame) : 0.302<br>
Stream size : 593 MiB (66%)<br>
Language : English<br>
Default : No<br>
Forced : No<br>
Color range : Limited<br>
Color primaries : BT.709<br>
Transfer characteristics : BT.709<br>
Matrix coefficients : BT.709<br>
Original source medium : Blu-ray<br>
<br>
Audio #1<br>
ID : 2<br>
ID in the original source medium : 4352 (0x1100)<br>
Format : PCM<br>
Format settings : Little / Signed<br>
Codec ID : A_PCM/INT/LIT<br>
Duration : 4 min 25 s<br>
Bit rate mode : Constant<br>
Bit rate : 2 304 kb/s<br>
Channel(s) : 2 channels<br>
Sampling rate : 48.0 kHz<br>
Frame rate : 30.000 FPS (1600 SPF)<br>
Bit depth : 24 bits<br>
Stream size : 72.8 MiB (8%)<br>
Title : Stereo<br>
Language : English<br>
Default : Yes<br>
Forced : No<br>
Original source medium : Blu-ray<br>
<br>
Audio #2<br>
ID : 3<br>
ID in the original source medium : 4353 (0x1101)<br>
Format : AC-3<br>
Format/Info : Audio Coding 3<br>
Commercial name : Dolby Digital<br>
Codec ID : A_AC3<br>
Duration : 4 min 25 s<br>
Bit rate mode : Constant<br>
Bit rate : 640 kb/s<br>
Channel(s) : 6 channels<br>
Channel layout : L R C LFE Ls Rs<br>
Sampling rate : 48.0 kHz<br>
Frame rate : 31.250 FPS (1536 SPF)<br>
Compression mode : Lossy<br>
Stream size : 20.2 MiB (2%)<br>
Title : Surround 5.1<br>
Language : English<br>
Service kind : Complete Main<br>
Default : No<br>
Forced : No<br>
Original source medium : Blu-ray<br>
<br>
Audio #3<br>
ID : 4<br>
ID in the original source medium : 4354 (0x1102)<br>
Format : DTS XLL<br>
Format/Info : Digital Theater Systems<br>
Commercial name : DTS-HD Master Audio<br>
Codec ID : A_DTS<br>
Duration : 4 min 25 s<br>
Bit rate mode : Variable<br>
Bit rate : 5 373 kb/s<br>
Channel(s) : 6 channels<br>
Channel layout : C L R Ls Rs LFE<br>
Sampling rate : 48.0 kHz<br>
Frame rate : 93.750 FPS (512 SPF)<br>
Bit depth : 24 bits<br>
Compression mode : Lossless<br>
Stream size : 170 MiB (19%)<br>
Title : Surround 5.1<br>
Language : English<br>
Default : No<br>
Forced : No<br>
Original source medium : Blu-ray<br>
<br>
Audio #4<br>
ID : 5<br>
ID in the original source medium : 4354 (0x1102)<br>
Format : DTS<br>
Format/Info : Digital Theater Systems<br>
Codec ID : A_DTS<br>
Duration : 4 min 25 s<br>
Bit rate mode : Constant<br>
Bit rate : 1 509 kb/s<br>
Channel(s) : 6 channels<br>
Channel layout : C L R Ls Rs LFE<br>
Sampling rate : 48.0 kHz<br>
Frame rate : 93.750 FPS (512 SPF)<br>
Bit depth : 24 bits<br>
Compression mode : Lossy<br>
Stream size : 47.7 MiB (5%)<br>
Title : Surround 5.1<br>
Language : English<br>
Default : No<br>
Forced : No<br>
Original source medium : Blu-ray<br>
<br>
Menu<br>
00:00:00.000 : en:Chapter 01<br>
<br>
General<br>
Unique ID : 223733795040032776487478858274749785301 (0xA8518FC1574BDB65688546DDB873A4D5)<br>
Complete name : D:\Video\ZZTOP\Split\1\Heard It On The X.mkv<br>
Format : Matroska<br>
Format version : Version 4<br>
File size : 741 MiB<br>
Duration : 3 min 50 s<br>
Overall bit rate mode : Variable<br>
Overall bit rate : 27.0 Mb/s<br>
Movie name : Heard It On The X<br>
Track name/Position : 8<br>
Encoded date : UTC 2023-06-06 20:45:25<br>
Writing application : mkvmerge v51.0.0 ('I Wish') 64-bit<br>
Writing library : libebml v1.4.0 + libmatroska v1.6.2<br>
Original source form : Blu-ray<br>
Comment : Bluray Rip by Freaky2003 (Sharemania)<br>
ARTIST : ZZ Top<br>
CATALOGID : ST2BD18004, ST2BD18004<br>
COUNTRY : Brazil<br>
DATE_RECORDED : 2008<br>
DISCOGS_RELEASE_ID : 14388454<br>
GENRE : Rock<br>
PUBLISHER : ST2 Music, Eagle Vision<br>
STYLE : Blues Rock, Southern Rock, Hard Rock<br>
WWW : <a href="https://www.discogs.com/release/14388454-ZZ-Top-Live-From-Texas" target="_blank" class="externalLink" rel="nofollow">https://www.discogs.com/release/14388454-ZZ-Top-Live-From-Texas</a><br>
<br>
Video<br>
ID : 1<br>
ID in the original source medium : 4113 (0x1011)<br>
Format : AVC<br>
Format/Info : Advanced Video Codec<br>
Format profile : High@L4.1<br>
Format settings : CABAC / 4 Ref Frames<br>
Format settings, CABAC : Yes<br>
Format settings, Reference frames : 4 frames<br>
Codec ID : V_MPEG4/ISO/AVC<br>
Duration : 3 min 50 s<br>
Bit rate mode : Variable<br>
Bit rate : 17.2 Mb/s<br>
Maximum bit rate : 33.0 Mb/s<br>
Width : 1 920 pixels<br>
Height : 1 080 pixels<br>
Display aspect ratio : 16:9<br>
Frame rate mode : Constant<br>
Frame rate : 29.970 (30000/1001) FPS<br>
Color space : YUV<br>
Chroma subsampling : 4:2:0<br>
Bit depth : 8 bits<br>
Scan type : MBAFF<br>
Scan type, store method : Interleaved fields<br>
Scan order : Top Field First<br>
Bits/(Pixel*Frame) : 0.278<br>
Stream size : 474 MiB (64%)<br>
Language : English<br>
Default : No<br>
Forced : No<br>
Color range : Limited<br>
Color primaries : BT.709<br>
Transfer characteristics : BT.709<br>
Matrix coefficients : BT.709<br>
Original source medium : Blu-ray<br>
<br>
Audio #1<br>
ID : 2<br>
ID in the original source medium : 4352 (0x1100)<br>
Format : PCM<br>
Format settings : Little / Signed<br>
Codec ID : A_PCM/INT/LIT<br>
Duration : 3 min 50 s<br>
Bit rate mode : Constant<br>
Bit rate : 2 304 kb/s<br>
Channel(s) : 2 channels<br>
Sampling rate : 48.0 kHz<br>
Frame rate : 30.000 FPS (1600 SPF)<br>
Bit depth : 24 bits<br>
Delay relative to video : 89 ms<br>
Stream size : 63.3 MiB (9%)<br>
Title : Stereo<br>
Language : English<br>
Default : Yes<br>
Forced : No<br>
Original source medium : Blu-ray<br>
<br>
Audio #2<br>
ID : 3<br>
ID in the original source medium : 4353 (0x1101)<br>
Format : AC-3<br>
Format/Info : Audio Coding 3<br>
Commercial name : Dolby Digital<br>
Codec ID : A_AC3<br>
Duration : 3 min 50 s<br>
Bit rate mode : Constant<br>
Bit rate : 640 kb/s<br>
Channel(s) : 6 channels<br>
Channel layout : L R C LFE Ls Rs<br>
Sampling rate : 48.0 kHz<br>
Frame rate : 31.250 FPS (1536 SPF)<br>
Compression mode : Lossy<br>
Delay relative to video : 81 ms<br>
Stream size : 17.6 MiB (2%)<br>
Title : Surround 5.1<br>
Language : English<br>
Service kind : Complete Main<br>
Default : No<br>
Forced : No<br>
Original source medium : Blu-ray<br>
<br>
Audio #3<br>
ID : 4<br>
ID in the original source medium : 4354 (0x1102)<br>
Format : DTS XLL<br>
Format/Info : Digital Theater Systems<br>
Commercial name : DTS-HD Master Audio<br>
Codec ID : A_DTS<br>
Duration : 3 min 50 s<br>
Bit rate mode : Variable<br>
Bit rate : 5 273 kb/s<br>
Channel(s) : 6 channels<br>
Channel layout : C L R Ls Rs LFE<br>
Sampling rate : 48.0 kHz<br>
Frame rate : 93.750 FPS (512 SPF)<br>
Bit depth : 24 bits<br>
Compression mode : Lossless<br>
Delay relative to video : 70 ms<br>
Stream size : 145 MiB (20%)<br>
Title : Surround 5.1<br>
Language : English<br>
Default : No<br>
Forced : No<br>
Original source medium : Blu-ray<br>
<br>
Audio #4<br>
ID : 5<br>
ID in the original source medium : 4354 (0x1102)<br>
Format : DTS<br>
Format/Info : Digital Theater Systems<br>
Codec ID : A_DTS<br>
Duration : 3 min 50 s<br>
Bit rate mode : Constant<br>
Bit rate : 1 509 kb/s<br>
Channel(s) : 6 channels<br>
Channel layout : C L R Ls Rs LFE<br>
Sampling rate : 48.0 kHz<br>
Frame rate : 93.750 FPS (512 SPF)<br>
Bit depth : 24 bits<br>
Compression mode : Lossy<br>
Delay relative to video : 70 ms<br>
Stream size : 41.5 MiB (6%)<br>
Title : Surround 5.1<br>
Language : English<br>
Default : No<br>
Forced : No<br>
Original source medium : Blu-ray<br>
<br>
Menu<br>
00:00:00.000 : en:Chapter 07 / en:Chapter 08<br>
<br>
General<br>
Unique ID : 142570543795310180541930257590664901041 (0x6B421683C78EEF286FFF310A0E0531B1)<br>
Complete name : D:\Video\ZZTOP\Split\1\I'm Bad, I'm Nationwide.mkv<br>
Format : Matroska<br>
Format version : Version 4<br>
File size : 960 MiB<br>
Duration : 4 min 40 s<br>
Overall bit rate mode : Variable<br>
Overall bit rate : 28.7 Mb/s<br>
Movie name : I'm Bad, I'm Nationwide<br>
Track name/Position : 4<br>
Encoded date : UTC 2023-06-06 20:45:25<br>
Writing application : mkvmerge v51.0.0 ('I Wish') 64-bit<br>
Writing library : libebml v1.4.0 + libmatroska v1.6.2<br>
Original source form : Blu-ray<br>
Comment : Bluray Rip by Freaky2003 (Sharemania)<br>
ARTIST : ZZ Top<br>
CATALOGID : ST2BD18004, ST2BD18004<br>
COUNTRY : Brazil<br>
DATE_RECORDED : 2008<br>
DISCOGS_RELEASE_ID : 14388454<br>
GENRE : Rock<br>
PUBLISHER : ST2 Music, Eagle Vision<br>
STYLE : Blues Rock, Southern Rock, Hard Rock<br>
WWW : <a href="https://www.discogs.com/release/14388454-ZZ-Top-Live-From-Texas" target="_blank" class="externalLink" rel="nofollow">https://www.discogs.com/release/14388454-ZZ-Top-Live-From-Texas</a><br>
<br>
Video<br>
ID : 1<br>
ID in the original source medium : 4113 (0x1011)<br>
Format : AVC<br>
Format/Info : Advanced Video Codec<br>
Format profile : High@L4.1<br>
Format settings : CABAC / 4 Ref Frames<br>
Format settings, CABAC : Yes<br>
Format settings, Reference frames : 4 frames<br>
Codec ID : V_MPEG4/ISO/AVC<br>
Duration : 4 min 40 s<br>
Bit rate mode : Variable<br>
Bit rate : 19.0 Mb/s<br>
Maximum bit rate : 33.0 Mb/s<br>
Width : 1 920 pixels<br>
Height : 1 080 pixels<br>
Display aspect ratio : 16:9<br>
Frame rate mode : Constant<br>
Frame rate : 29.970 (30000/1001) FPS<br>
Color space : YUV<br>
Chroma subsampling : 4:2:0<br>
Bit depth : 8 bits<br>
Scan type : MBAFF<br>
Scan type, store method : Interleaved fields<br>
Scan order : Top Field First<br>
Bits/(Pixel*Frame) : 0.306<br>
Stream size : 636 MiB (66%)<br>
Language : English<br>
Default : No<br>
Forced : No<br>
Color range : Limited<br>
Color primaries : BT.709<br>
Transfer characteristics : BT.709<br>
Matrix coefficients : BT.709<br>
Original source medium : Blu-ray<br>
<br>
Audio #1<br>
ID : 2<br>
ID in the original source medium : 4352 (0x1100)<br>
Format : PCM<br>
Format settings : Little / Signed<br>
Codec ID : A_PCM/INT/LIT<br>
Duration : 4 min 40 s<br>
Bit rate mode : Constant<br>
Bit rate : 2 304 kb/s<br>
Channel(s) : 2 channels<br>
Sampling rate : 48.0 kHz<br>
Frame rate : 30.000 FPS (1600 SPF)<br>
Bit depth : 24 bits<br>
Delay relative to video : 97 ms<br>
Stream size : 77.0 MiB (8%)<br>
Title : Stereo<br>
Language : English<br>
Default : Yes<br>
Forced : No<br>
Original source medium : Blu-ray<br>
<br>
Audio #2<br>
ID : 3<br>
ID in the original source medium : 4353 (0x1101)<br>
Format : AC-3<br>
Format/Info : Audio Coding 3<br>
Commercial name : Dolby Digital<br>
Codec ID : A_AC3<br>
Duration : 4 min 40 s<br>
Bit rate mode : Constant<br>
Bit rate : 640 kb/s<br>
Channel(s) : 6 channels<br>
Channel layout : L R C LFE Ls Rs<br>
Sampling rate : 48.0 kHz<br>
Frame rate : 31.250 FPS (1536 SPF)<br>
Compression mode : Lossy<br>
Delay relative to video : 97 ms<br>
Stream size : 21.4 MiB (2%)<br>
Title : Surround 5.1<br>
Language : English<br>
Service kind : Complete Main<br>
Default : No<br>
Forced : No<br>
Original source medium : Blu-ray<br>
<br>
Audio #3<br>
ID : 4<br>
ID in the original source medium : 4354 (0x1102)<br>
Format : DTS XLL<br>
Format/Info : Digital Theater Systems<br>
Commercial name : DTS-HD Master Audio<br>
Codec ID : A_DTS<br>
Duration : 4 min 40 s<br>
Bit rate mode : Variable<br>
Bit rate : 5 224 kb/s<br>
Channel(s) : 6 channels<br>
Channel layout : C L R Ls Rs LFE<br>
Sampling rate : 48.0 kHz<br>
Frame rate : 93.750 FPS (512 SPF)<br>
Bit depth : 24 bits<br>
Compression mode : Lossless<br>
Delay relative to video : 76 ms<br>
Stream size : 175 MiB (18%)<br>
Title : Surround 5.1<br>
Language : English<br>
Default : No<br>
Forced : No<br>
Original source medium : Blu-ray<br>
<br>
Audio #4<br>
ID : 5<br>
ID in the original source medium : 4354 (0x1102)<br>
Format : DTS<br>
Format/Info : Digital Theater Systems<br>
Codec ID : A_DTS<br>
Duration : 4 min 40 s<br>
Bit rate mode : Constant<br>
Bit rate : 1 509 kb/s<br>
Channel(s) : 6 channels<br>
Channel layout : C L R Ls Rs LFE<br>
Sampling rate : 48.0 kHz<br>
Frame rate : 93.750 FPS (512 SPF)<br>
Bit depth : 24 bits<br>
Compression mode : Lossy<br>
Delay relative to video : 76 ms<br>
Stream size : 50.4 MiB (5%)<br>
Title : Surround 5.1<br>
Language : English<br>
Default : No<br>
Forced : No<br>
Original source medium : Blu-ray<br>
<br>
Menu<br>
00:00:00.000 : en:Chapter 03 / en:Chapter 04<br>
<br>
General<br>
Unique ID : 323851349025533241767264980307608060523 (0xF3A3804596D8F2F8AC4E3E32C9AFC26B)<br>
Complete name : D:\Video\ZZTOP\Split\1\Jesus Just Left Chicago.mkv<br>
Format : Matroska<br>
Format version : Version 4<br>
File size : 935 MiB<br>
Duration : 4 min 57 s<br>
Overall bit rate mode : Variable<br>
Overall bit rate : 26.4 Mb/s<br>
Movie name : Jesus Just Left Chicago<br>
Track name/Position : 3<br>
Encoded date : UTC 2023-06-06 20:45:25<br>
Writing application : mkvmerge v51.0.0 ('I Wish') 64-bit<br>
Writing library : libebml v1.4.0 + libmatroska v1.6.2<br>
Original source form : Blu-ray<br>
Comment : Bluray Rip by Freaky2003 (Sharemania)<br>
ARTIST : ZZ Top<br>
CATALOGID : ST2BD18004, ST2BD18004<br>
COUNTRY : Brazil<br>
DATE_RECORDED : 2008<br>
DISCOGS_RELEASE_ID : 14388454<br>
GENRE : Rock<br>
PUBLISHER : ST2 Music, Eagle Vision<br>
STYLE : Blues Rock, Southern Rock, Hard Rock<br>
WWW : <a href="https://www.discogs.com/release/14388454-ZZ-Top-Live-From-Texas" target="_blank" class="externalLink" rel="nofollow">https://www.discogs.com/release/14388454-ZZ-Top-Live-From-Texas</a><br>
<br>
Video<br>
ID : 1<br>
ID in the original source medium : 4113 (0x1011)<br>
Format : AVC<br>
Format/Info : Advanced Video Codec<br>
Format profile : High@L4.1<br>
Format settings : CABAC / 4 Ref Frames<br>
Format settings, CABAC : Yes<br>
Format settings, Reference frames : 4 frames<br>
Codec ID : V_MPEG4/ISO/AVC<br>
Duration : 4 min 57 s<br>
Bit rate mode : Variable<br>
Bit rate : 16.8 Mb/s<br>
Maximum bit rate : 33.0 Mb/s<br>
Width : 1 920 pixels<br>
Height : 1 080 pixels<br>
Display aspect ratio : 16:9<br>
Frame rate mode : Constant<br>
Frame rate : 29.970 (30000/1001) FPS<br>
Color space : YUV<br>
Chroma subsampling : 4:2:0<br>
Bit depth : 8 bits<br>
Scan type : MBAFF<br>
Scan type, store method : Interleaved fields<br>
Scan order : Top Field First<br>
Bits/(Pixel*Frame) : 0.270<br>
Stream size : 596 MiB (64%)<br>
Language : English<br>
Default : No<br>
Forced : No<br>
Color range : Limited<br>
Color primaries : BT.709<br>
Transfer characteristics : BT.709<br>
Matrix coefficients : BT.709<br>
Original source medium : Blu-ray<br>
<br>
Audio #1<br>
ID : 2<br>
ID in the original source medium : 4352 (0x1100)<br>
Format : PCM<br>
Format settings : Little / Signed<br>
Codec ID : A_PCM/INT/LIT<br>
Duration : 4 min 57 s<br>
Bit rate mode : Constant<br>
Bit rate : 2 304 kb/s<br>
Channel(s) : 2 channels<br>
Sampling rate : 48.0 kHz<br>
Frame rate : 30.000 FPS (1600 SPF)<br>
Bit depth : 24 bits<br>
Delay relative to video : 94 ms<br>
Stream size : 81.7 MiB (9%)<br>
Title : Stereo<br>
Language : English<br>
Default : Yes<br>
Forced : No<br>
Original source medium : Blu-ray<br>
<br>
Audio #2<br>
ID : 3<br>
ID in the original source medium : 4353 (0x1101)<br>
Format : AC-3<br>
Format/Info : Audio Coding 3<br>
Commercial name : Dolby Digital<br>
Codec ID : A_AC3<br>
Duration : 4 min 57 s<br>
Bit rate mode : Constant<br>
Bit rate : 640 kb/s<br>
Channel(s) : 6 channels<br>
Channel layout : L R C LFE Ls Rs<br>
Sampling rate : 48.0 kHz<br>
Frame rate : 31.250 FPS (1536 SPF)<br>
Compression mode : Lossy<br>
Delay relative to video : 86 ms<br>
Stream size : 22.7 MiB (2%)<br>
Title : Surround 5.1<br>
Language : English<br>
Service kind : Complete Main<br>
Default : No<br>
Forced : No<br>
Original source medium : Blu-ray<br>
<br>
Audio #3<br>
ID : 4<br>
ID in the original source medium : 4354 (0x1102)<br>
Format : DTS XLL<br>
Format/Info : Digital Theater Systems<br>
Commercial name : DTS-HD Master Audio<br>
Codec ID : A_DTS<br>
Duration : 4 min 57 s<br>
Bit rate mode : Variable<br>
Bit rate : 5 107 kb/s<br>
Channel(s) : 6 channels<br>
Channel layout : C L R Ls Rs LFE<br>
Sampling rate : 48.0 kHz<br>
Frame rate : 93.750 FPS (512 SPF)<br>
Bit depth : 24 bits<br>
Compression mode : Lossless<br>
Delay relative to video : 75 ms<br>
Stream size : 181 MiB (19%)<br>
Title : Surround 5.1<br>
Language : English<br>
Default : No<br>
Forced : No<br>
Original source medium : Blu-ray<br>
<br>
Audio #4<br>
ID : 5<br>
ID in the original source medium : 4354 (0x1102)<br>
Format : DTS<br>
Format/Info : Digital Theater Systems<br>
Codec ID : A_DTS<br>
Duration : 4 min 57 s<br>
Bit rate mode : Constant<br>
Bit rate : 1 509 kb/s<br>
Channel(s) : 6 channels<br>
Channel layout : C L R Ls Rs LFE<br>
Sampling rate : 48.0 kHz<br>
Frame rate : 93.750 FPS (512 SPF)<br>
Bit depth : 24 bits<br>
Compression mode : Lossy<br>
Delay relative to video : 75 ms<br>
Stream size : 53.5 MiB (6%)<br>
Title : Surround 5.1<br>
Language : English<br>
Default : No<br>
Forced : No<br>
Original source medium : Blu-ray<br>
<br>
Menu<br>
00:00:00.000 : en:Chapter 02 / en:Chapter 03<br>
<br>
General<br>
Unique ID : 266363037078671323416985620840952300557 (0xC863A7A8C1BC2B240284BB97A18F040D)<br>
Complete name : D:\Video\ZZTOP\Split\1\Just Got Paid.mkv<br>
Format : Matroska<br>
Format version : Version 4<br>
File size : 1.39 GiB<br>
Duration : 7 min 37 s<br>
Overall bit rate mode : Variable<br>
Overall bit rate : 26.1 Mb/s<br>
Movie name : Just Got Paid<br>
Track name/Position : 9<br>
Encoded date : UTC 2023-06-06 20:45:25<br>
Writing application : mkvmerge v51.0.0 ('I Wish') 64-bit<br>
Writing library : libebml v1.4.0 + libmatroska v1.6.2<br>
Original source form : Blu-ray<br>
Comment : Bluray Rip by Freaky2003 (Sharemania)<br>
ARTIST : ZZ Top<br>
CATALOGID : ST2BD18004, ST2BD18004<br>
COUNTRY : Brazil<br>
DATE_RECORDED : 2008<br>
DISCOGS_RELEASE_ID : 14388454<br>
GENRE : Rock<br>
PUBLISHER : ST2 Music, Eagle Vision<br>
STYLE : Blues Rock, Southern Rock, Hard Rock<br>
WWW : <a href="https://www.discogs.com/release/14388454-ZZ-Top-Live-From-Texas" target="_blank" class="externalLink" rel="nofollow">https://www.discogs.com/release/14388454-ZZ-Top-Live-From-Texas</a><br>
<br>
Video<br>
ID : 1<br>
ID in the original source medium : 4113 (0x1011)<br>
Format : AVC<br>
Format/Info : Advanced Video Codec<br>
Format profile : High@L4.1<br>
Format settings : CABAC / 4 Ref Frames<br>
Format settings, CABAC : Yes<br>
Format settings, Reference frames : 4 frames<br>
Codec ID : V_MPEG4/ISO/AVC<br>
Duration : 7 min 37 s<br>
Bit rate mode : Variable<br>
Bit rate : 16.4 Mb/s<br>
Maximum bit rate : 33.0 Mb/s<br>
Width : 1 920 pixels<br>
Height : 1 080 pixels<br>
Display aspect ratio : 16:9<br>
Frame rate mode : Constant<br>
Frame rate : 29.970 (30000/1001) FPS<br>
Color space : YUV<br>
Chroma subsampling : 4:2:0<br>
Bit depth : 8 bits<br>
Scan type : MBAFF<br>
Scan type, store method : Interleaved fields<br>
Scan order : Top Field First<br>
Bits/(Pixel*Frame) : 0.264<br>
Stream size : 894 MiB (63%)<br>
Language : English<br>
Default : No<br>
Forced : No<br>
Color range : Limited<br>
Color primaries : BT.709<br>
Transfer characteristics : BT.709<br>
Matrix coefficients : BT.709<br>
Original source medium : Blu-ray<br>
<br>
Audio #1<br>
ID : 2<br>
ID in the original source medium : 4352 (0x1100)<br>
Format : PCM<br>
Format settings : Little / Signed<br>
Codec ID : A_PCM/INT/LIT<br>
Duration : 7 min 37 s<br>
Bit rate mode : Constant<br>
Bit rate : 2 304 kb/s<br>
Channel(s) : 2 channels<br>
Sampling rate : 48.0 kHz<br>
Frame rate : 30.000 FPS (1600 SPF)<br>
Bit depth : 24 bits<br>
Delay relative to video : 93 ms<br>
Stream size : 126 MiB (9%)<br>
Title : Stereo<br>
Language : English<br>
Default : Yes<br>
Forced : No<br>
Original source medium : Blu-ray<br>
<br>
Audio #2<br>
ID : 3<br>
ID in the original source medium : 4353 (0x1101)<br>
Format : AC-3<br>
Format/Info : Audio Coding 3<br>
Commercial name : Dolby Digital<br>
Codec ID : A_AC3<br>
Duration : 7 min 37 s<br>
Bit rate mode : Constant<br>
Bit rate : 640 kb/s<br>
Channel(s) : 6 channels<br>
Channel layout : L R C LFE Ls Rs<br>
Sampling rate : 48.0 kHz<br>
Frame rate : 31.250 FPS (1536 SPF)<br>
Compression mode : Lossy<br>
Delay relative to video : 82 ms<br>
Stream size : 34.9 MiB (2%)<br>
Title : Surround 5.1<br>
Language : English<br>
Service kind : Complete Main<br>
Default : No<br>
Forced : No<br>
Original source medium : Blu-ray<br>
<br>
Audio #3<br>
ID : 4<br>
ID in the original source medium : 4354 (0x1102)<br>
Format : DTS XLL<br>
Format/Info : Digital Theater Systems<br>
Commercial name : DTS-HD Master Audio<br>
Codec ID : A_DTS<br>
Duration : 7 min 37 s<br>
Bit rate mode : Variable<br>
Bit rate : 5 251 kb/s<br>
Channel(s) : 6 channels<br>
Channel layout : C L R Ls Rs LFE<br>
Sampling rate : 48.0 kHz<br>
Frame rate : 93.750 FPS (512 SPF)<br>
Bit depth : 24 bits<br>
Compression mode : Lossless<br>
Delay relative to video : 71 ms<br>
Stream size : 286 MiB (20%)<br>
Title : Surround 5.1<br>
Language : English<br>
Default : No<br>
Forced : No<br>
Original source medium : Blu-ray<br>
<br>
Audio #4<br>
ID : 5<br>
ID in the original source medium : 4354 (0x1102)<br>
Format : DTS<br>
Format/Info : Digital Theater Systems<br>
Codec ID : A_DTS<br>
Duration : 7 min 37 s<br>
Bit rate mode : Constant<br>
Bit rate : 1 509 kb/s<br>
Channel(s) : 6 channels<br>
Channel layout : C L R Ls Rs LFE<br>
Sampling rate : 48.0 kHz<br>
Frame rate : 93.750 FPS (512 SPF)<br>
Bit depth : 24 bits<br>
Compression mode : Lossy<br>
Delay relative to video : 71 ms<br>
Stream size : 82.2 MiB (6%)<br>
Title : Surround 5.1<br>
Language : English<br>
Default : No<br>
Forced : No<br>
Original source medium : Blu-ray<br>
<br>
Menu<br>
00:00:00.000 : en:Chapter 09<br>
<br>
General<br>
Unique ID : 216512761872590128013710945405984137413 (0xA2E2D75529D4EADA540A951AD87560C5)<br>
Complete name : D:\Video\ZZTOP\Split\1\La Grange.mkv<br>
Format : Matroska<br>
Format version : Version 4<br>
File size : 1.46 GiB<br>
Duration : 7 min 48 s<br>
Overall bit rate mode : Variable<br>
Overall bit rate : 26.8 Mb/s<br>
Movie name : La Grange<br>
Track name/Position : 16<br>
Encoded date : UTC 2023-06-06 20:45:25<br>
Writing application : mkvmerge v51.0.0 ('I Wish') 64-bit<br>
Writing library : libebml v1.4.0 + libmatroska v1.6.2<br>
Original source form : Blu-ray<br>
Comment : Bluray Rip by Freaky2003 (Sharemania)<br>
ARTIST : ZZ Top<br>
CATALOGID : ST2BD18004, ST2BD18004<br>
COUNTRY : Brazil<br>
DATE_RECORDED : 2008<br>
DISCOGS_RELEASE_ID : 14388454<br>
GENRE : Rock<br>
PUBLISHER : ST2 Music, Eagle Vision<br>
STYLE : Blues Rock, Southern Rock, Hard Rock<br>
WWW : <a href="https://www.discogs.com/release/14388454-ZZ-Top-Live-From-Texas" target="_blank" class="externalLink" rel="nofollow">https://www.discogs.com/release/14388454-ZZ-Top-Live-From-Texas</a><br>
<br>
Video<br>
ID : 1<br>
ID in the original source medium : 4113 (0x1011)<br>
Format : AVC<br>
Format/Info : Advanced Video Codec<br>
Format profile : High@L4.1<br>
Format settings : CABAC / 4 Ref Frames<br>
Format settings, CABAC : Yes<br>
Format settings, Reference frames : 4 frames<br>
Codec ID : V_MPEG4/ISO/AVC<br>
Duration : 7 min 48 s<br>
Bit rate mode : Variable<br>
Bit rate : 17.3 Mb/s<br>
Maximum bit rate : 33.0 Mb/s<br>
Width : 1 920 pixels<br>
Height : 1 080 pixels<br>
Display aspect ratio : 16:9<br>
Frame rate mode : Constant<br>
Frame rate : 29.970 (30000/1001) FPS<br>
Color space : YUV<br>
Chroma subsampling : 4:2:0<br>
Bit depth : 8 bits<br>
Scan type : MBAFF<br>
Scan type, store method : Interleaved fields<br>
Scan order : Top Field First<br>
Bits/(Pixel*Frame) : 0.278<br>
Stream size : 965 MiB (64%)<br>
Language : English<br>
Default : No<br>
Forced : No<br>
Color range : Limited<br>
Color primaries : BT.709<br>
Transfer characteristics : BT.709<br>
Matrix coefficients : BT.709<br>
Original source medium : Blu-ray<br>
<br>
Audio #1<br>
ID : 2<br>
ID in the original source medium : 4352 (0x1100)<br>
Format : PCM<br>
Format settings : Little / Signed<br>
Codec ID : A_PCM/INT/LIT<br>
Duration : 7 min 48 s<br>
Bit rate mode : Constant<br>
Bit rate : 2 304 kb/s<br>
Channel(s) : 2 channels<br>
Sampling rate : 48.0 kHz<br>
Frame rate : 30.000 FPS (1600 SPF)<br>
Bit depth : 24 bits<br>
Delay relative to video : 84 ms<br>
Stream size : 129 MiB (9%)<br>
Title : Stereo<br>
Language : English<br>
Default : Yes<br>
Forced : No<br>
Original source medium : Blu-ray<br>
<br>
Audio #2<br>
ID : 3<br>
ID in the original source medium : 4353 (0x1101)<br>
Format : AC-3<br>
Format/Info : Audio Coding 3<br>
Commercial name : Dolby Digital<br>
Codec ID : A_AC3<br>
Duration : 7 min 48 s<br>
Bit rate mode : Constant<br>
Bit rate : 640 kb/s<br>
Channel(s) : 6 channels<br>
Channel layout : L R C LFE Ls Rs<br>
Sampling rate : 48.0 kHz<br>
Frame rate : 31.250 FPS (1536 SPF)<br>
Compression mode : Lossy<br>
Delay relative to video : 87 ms<br>
Stream size : 35.7 MiB (2%)<br>
Title : Surround 5.1<br>
Language : English<br>
Service kind : Complete Main<br>
Default : No<br>
Forced : No<br>
Original source medium : Blu-ray<br>
<br>
Audio #3<br>
ID : 4<br>
ID in the original source medium : 4354 (0x1102)<br>
Format : DTS XLL<br>
Format/Info : Digital Theater Systems<br>
Commercial name : DTS-HD Master Audio<br>
Codec ID : A_DTS<br>
Duration : 7 min 48 s<br>
Bit rate mode : Variable<br>
Bit rate : 5 072 kb/s<br>
Channel(s) : 6 channels<br>
Channel layout : C L R Ls Rs LFE<br>
Sampling rate : 48.0 kHz<br>
Frame rate : 93.750 FPS (512 SPF)<br>
Bit depth : 24 bits<br>
Compression mode : Lossless<br>
Delay relative to video : 76 ms<br>
Stream size : 283 MiB (19%)<br>
Title : Surround 5.1<br>
Language : English<br>
Default : No<br>
Forced : No<br>
Original source medium : Blu-ray<br>
<br>
Audio #4<br>
ID : 5<br>
ID in the original source medium : 4354 (0x1102)<br>
Format : DTS<br>
Format/Info : Digital Theater Systems<br>
Codec ID : A_DTS<br>
Duration : 7 min 48 s<br>
Bit rate mode : Constant<br>
Bit rate : 1 509 kb/s<br>
Channel(s) : 6 channels<br>
Channel layout : C L R Ls Rs LFE<br>
Sampling rate : 48.0 kHz<br>
Frame rate : 93.750 FPS (512 SPF)<br>
Bit depth : 24 bits<br>
Compression mode : Lossy<br>
Delay relative to video : 76 ms<br>
Stream size : 84.3 MiB (6%)<br>
Title : Surround 5.1<br>
Language : English<br>
Default : No<br>
Forced : No<br>
Original source medium : Blu-ray<br>
<br>
Menu<br>
00:00:00.000 : en:Chapter 15 / en:Chapter 16<br>
<br>
General<br>
Unique ID : 150180926360847178698283810148370264724 (0x70FBCB584152B5EBD0816CD8262AB294)<br>
Complete name : D:\Video\ZZTOP\Split\1\Legs.mkv<br>
Format : Matroska<br>
Format version : Version 4<br>
File size : 1 023 MiB<br>
Duration : 5 min 18 s<br>
Overall bit rate mode : Variable<br>
Overall bit rate : 27.0 Mb/s<br>
Movie name : Legs<br>
Track name/Position : 14<br>
Encoded date : UTC 2023-06-06 20:45:25<br>
Writing application : mkvmerge v51.0.0 ('I Wish') 64-bit<br>
Writing library : libebml v1.4.0 + libmatroska v1.6.2<br>
Original source form : Blu-ray<br>
Comment : Bluray Rip by Freaky2003 (Sharemania)<br>
ARTIST : ZZ Top<br>
CATALOGID : ST2BD18004, ST2BD18004<br>
COUNTRY : Brazil<br>
DATE_RECORDED : 2008<br>
DISCOGS_RELEASE_ID : 14388454<br>
GENRE : Rock<br>
PUBLISHER : ST2 Music, Eagle Vision<br>
STYLE : Blues Rock, Southern Rock, Hard Rock<br>
WWW : <a href="https://www.discogs.com/release/14388454-ZZ-Top-Live-From-Texas" target="_blank" class="externalLink" rel="nofollow">https://www.discogs.com/release/14388454-ZZ-Top-Live-From-Texas</a><br>
<br>
Video<br>
ID : 1<br>
ID in the original source medium : 4113 (0x1011)<br>
Format : AVC<br>
Format/Info : Advanced Video Codec<br>
Format profile : High@L4.1<br>
Format settings : CABAC / 4 Ref Frames<br>
Format settings, CABAC : Yes<br>
Format settings, Reference frames : 4 frames<br>
Codec ID : V_MPEG4/ISO/AVC<br>
Duration : 5 min 17 s<br>
Bit rate mode : Variable<br>
Bit rate : 17.3 Mb/s<br>
Maximum bit rate : 33.0 Mb/s<br>
Width : 1 920 pixels<br>
Height : 1 080 pixels<br>
Display aspect ratio : 16:9<br>
Frame rate mode : Constant<br>
Frame rate : 29.970 (30000/1001) FPS<br>
Color space : YUV<br>
Chroma subsampling : 4:2:0<br>
Bit depth : 8 bits<br>
Scan type : MBAFF<br>
Scan type, store method : Interleaved fields<br>
Scan order : Top Field First<br>
Bits/(Pixel*Frame) : 0.278<br>
Stream size : 655 MiB (64%)<br>
Language : English<br>
Default : No<br>
Forced : No<br>
Color range : Limited<br>
Color primaries : BT.709<br>
Transfer characteristics : BT.709<br>
Matrix coefficients : BT.709<br>
Original source medium : Blu-ray<br>
<br>
Audio #1<br>
ID : 2<br>
ID in the original source medium : 4352 (0x1100)<br>
Format : PCM<br>
Format settings : Little / Signed<br>
Codec ID : A_PCM/INT/LIT<br>
Duration : 5 min 17 s<br>
Bit rate mode : Constant<br>
Bit rate : 2 304 kb/s<br>
Channel(s) : 2 channels<br>
Sampling rate : 48.0 kHz<br>
Frame rate : 30.000 FPS (1600 SPF)<br>
Bit depth : 24 bits<br>
Delay relative to video : 80 ms<br>
Stream size : 87.3 MiB (9%)<br>
Title : Stereo<br>
Language : English<br>
Default : Yes<br>
Forced : No<br>
Original source medium : Blu-ray<br>
<br>
Audio #2<br>
ID : 3<br>
ID in the original source medium : 4353 (0x1101)<br>
Format : AC-3<br>
Format/Info : Audio Coding 3<br>
Commercial name : Dolby Digital<br>
Codec ID : A_AC3<br>
Duration : 5 min 17 s<br>
Bit rate mode : Constant<br>
Bit rate : 640 kb/s<br>
Channel(s) : 6 channels<br>
Channel layout : L R C LFE Ls Rs<br>
Sampling rate : 48.0 kHz<br>
Frame rate : 31.250 FPS (1536 SPF)<br>
Compression mode : Lossy<br>
Delay relative to video : 75 ms<br>
Stream size : 24.3 MiB (2%)<br>
Title : Surround 5.1<br>
Language : English<br>
Service kind : Complete Main<br>
Default : No<br>
Forced : No<br>
Original source medium : Blu-ray<br>
<br>
Audio #3<br>
ID : 4<br>
ID in the original source medium : 4354 (0x1102)<br>
Format : DTS XLL<br>
Format/Info : Digital Theater Systems<br>
Commercial name : DTS-HD Master Audio<br>
Codec ID : A_DTS<br>
Duration : 5 min 17 s<br>
Bit rate mode : Variable<br>
Bit rate : 5 254 kb/s<br>
Channel(s) : 6 channels<br>
Channel layout : C L R Ls Rs LFE<br>
Sampling rate : 48.0 kHz<br>
Frame rate : 93.750 FPS (512 SPF)<br>
Bit depth : 24 bits<br>
Compression mode : Lossless<br>
Delay relative to video : 75 ms<br>
Stream size : 199 MiB (19%)<br>
Title : Surround 5.1<br>
Language : English<br>
Default : No<br>
Forced : No<br>
Original source medium : Blu-ray<br>
<br>
Audio #4<br>
ID : 5<br>
ID in the original source medium : 4354 (0x1102)<br>
Format : DTS<br>
Format/Info : Digital Theater Systems<br>
Codec ID : A_DTS<br>
Duration : 5 min 17 s<br>
Bit rate mode : Constant<br>
Bit rate : 1 509 kb/s<br>
Channel(s) : 6 channels<br>
Channel layout : C L R Ls Rs LFE<br>
Sampling rate : 48.0 kHz<br>
Frame rate : 93.750 FPS (512 SPF)<br>
Bit depth : 24 bits<br>
Compression mode : Lossy<br>
Delay relative to video : 75 ms<br>
Stream size : 57.2 MiB (6%)<br>
Title : Surround 5.1<br>
Language : English<br>
Default : No<br>
Forced : No<br>
Original source medium : Blu-ray<br>
<br>
Menu<br>
00:00:00.000 : en:Chapter 13 / en:Chapter 14<br>
<br>
General<br>
Unique ID : 64207951134426655231214922451069328620 (0x304E006744C5E8AB88A85DCE5EDA5CEC)<br>
Complete name : D:\Video\ZZTOP\Split\1\Pearl Necklace.mkv<br>
Format : Matroska<br>
Format version : Version 4<br>
File size : 793 MiB<br>
Duration : 3 min 51 s<br>
Overall bit rate mode : Variable<br>
Overall bit rate : 28.8 Mb/s<br>
Movie name : Pearl Necklace<br>
Track name/Position : 7<br>
Encoded date : UTC 2023-06-06 20:45:25<br>
Writing application : mkvmerge v51.0.0 ('I Wish') 64-bit<br>
Writing library : libebml v1.4.0 + libmatroska v1.6.2<br>
Original source form : Blu-ray<br>
Comment : Bluray Rip by Freaky2003 (Sharemania)<br>
ARTIST : ZZ Top<br>
CATALOGID : ST2BD18004, ST2BD18004<br>
COUNTRY : Brazil<br>
DATE_RECORDED : 2008<br>
DISCOGS_RELEASE_ID : 14388454<br>
GENRE : Rock<br>
PUBLISHER : ST2 Music, Eagle Vision<br>
STYLE : Blues Rock, Southern Rock, Hard Rock<br>
WWW : <a href="https://www.discogs.com/release/14388454-ZZ-Top-Live-From-Texas" target="_blank" class="externalLink" rel="nofollow">https://www.discogs.com/release/14388454-ZZ-Top-Live-From-Texas</a><br>
<br>
Video<br>
ID : 1<br>
ID in the original source medium : 4113 (0x1011)<br>
Format : AVC<br>
Format/Info : Advanced Video Codec<br>
Format profile : High@L4.1<br>
Format settings : CABAC / 4 Ref Frames<br>
Format settings, CABAC : Yes<br>
Format settings, Reference frames : 4 frames<br>
Codec ID : V_MPEG4/ISO/AVC<br>
Duration : 3 min 51 s<br>
Bit rate mode : Variable<br>
Bit rate : 19.1 Mb/s<br>
Maximum bit rate : 33.0 Mb/s<br>
Width : 1 920 pixels<br>
Height : 1 080 pixels<br>
Display aspect ratio : 16:9<br>
Frame rate mode : Constant<br>
Frame rate : 29.970 (30000/1001) FPS<br>
Color space : YUV<br>
Chroma subsampling : 4:2:0<br>
Bit depth : 8 bits<br>
Scan type : MBAFF<br>
Scan type, store method : Interleaved fields<br>
Scan order : Top Field First<br>
Bits/(Pixel*Frame) : 0.307<br>
Stream size : 525 MiB (66%)<br>
Language : English<br>
Default : No<br>
Forced : No<br>
Color range : Limited<br>
Color primaries : BT.709<br>
Transfer characteristics : BT.709<br>
Matrix coefficients : BT.709<br>
Original source medium : Blu-ray<br>
<br>
Audio #1<br>
ID : 2<br>
ID in the original source medium : 4352 (0x1100)<br>
Format : PCM<br>
Format settings : Little / Signed<br>
Codec ID : A_PCM/INT/LIT<br>
Duration : 3 min 51 s<br>
Bit rate mode : Constant<br>
Bit rate : 2 304 kb/s<br>
Channel(s) : 2 channels<br>
Sampling rate : 48.0 kHz<br>
Frame rate : 30.000 FPS (1600 SPF)<br>
Bit depth : 24 bits<br>
Delay relative to video : 87 ms<br>
Stream size : 63.5 MiB (8%)<br>
Title : Stereo<br>
Language : English<br>
Default : Yes<br>
Forced : No<br>
Original source medium : Blu-ray<br>
<br>
Audio #2<br>
ID : 3<br>
ID in the original source medium : 4353 (0x1101)<br>
Format : AC-3<br>
Format/Info : Audio Coding 3<br>
Commercial name : Dolby Digital<br>
Codec ID : A_AC3<br>
Duration : 3 min 51 s<br>
Bit rate mode : Constant<br>
Bit rate : 640 kb/s<br>
Channel(s) : 6 channels<br>
Channel layout : L R C LFE Ls Rs<br>
Sampling rate : 48.0 kHz<br>
Frame rate : 31.250 FPS (1536 SPF)<br>
Compression mode : Lossy<br>
Delay relative to video : 76 ms<br>
Stream size : 17.6 MiB (2%)<br>
Title : Surround 5.1<br>
Language : English<br>
Service kind : Complete Main<br>
Default : No<br>
Forced : No<br>
Original source medium : Blu-ray<br>
<br>
Audio #3<br>
ID : 4<br>
ID in the original source medium : 4354 (0x1102)<br>
Format : DTS XLL<br>
Format/Info : Digital Theater Systems<br>
Commercial name : DTS-HD Master Audio<br>
Codec ID : A_DTS<br>
Duration : 3 min 51 s<br>
Bit rate mode : Variable<br>
Bit rate : 5 281 kb/s<br>
Channel(s) : 6 channels<br>
Channel layout : C L R Ls Rs LFE<br>
Sampling rate : 48.0 kHz<br>
Frame rate : 93.750 FPS (512 SPF)<br>
Bit depth : 24 bits<br>
Compression mode : Lossless<br>
Delay relative to video : 76 ms<br>
Stream size : 146 MiB (18%)<br>
Title : Surround 5.1<br>
Language : English<br>
Default : No<br>
Forced : No<br>
Original source medium : Blu-ray<br>
<br>
Audio #4<br>
ID : 5<br>
ID in the original source medium : 4354 (0x1102)<br>
Format : DTS<br>
Format/Info : Digital Theater Systems<br>
Codec ID : A_DTS<br>
Duration : 3 min 51 s<br>
Bit rate mode : Constant<br>
Bit rate : 1 509 kb/s<br>
Channel(s) : 6 channels<br>
Channel layout : C L R Ls Rs LFE<br>
Sampling rate : 48.0 kHz<br>
Frame rate : 93.750 FPS (512 SPF)<br>
Bit depth : 24 bits<br>
Compression mode : Lossy<br>
Delay relative to video : 76 ms<br>
Stream size : 41.6 MiB (5%)<br>
Title : Surround 5.1<br>
Language : English<br>
Default : No<br>
Forced : No<br>
Original source medium : Blu-ray<br>
<br>
Menu<br>
00:00:00.000 : en:Chapter 06 / en:Chapter 07<br>
<br>
General<br>
Unique ID : 79243084902478571197135444046179519468 (0x3B9DA9BB04CFCDC7FFA86DD2E04CCBEC)<br>
Complete name : D:\Video\ZZTOP\Split\1\Pin Cushion.mkv<br>
Format : Matroska<br>
Format version : Version 4<br>
File size : 1 001 MiB<br>
Duration : 5 min 6 s<br>
Overall bit rate mode : Variable<br>
Overall bit rate : 27.4 Mb/s<br>
Movie name : Pin Cushion<br>
Track name/Position : 5<br>
Encoded date : UTC 2023-06-06 20:45:25<br>
Writing application : mkvmerge v51.0.0 ('I Wish') 64-bit<br>
Writing library : libebml v1.4.0 + libmatroska v1.6.2<br>
Original source form : Blu-ray<br>
Comment : Bluray Rip by Freaky2003 (Sharemania)<br>
ARTIST : ZZ Top<br>
CATALOGID : ST2BD18004, ST2BD18004<br>
COUNTRY : Brazil<br>
DATE_RECORDED : 2008<br>
DISCOGS_RELEASE_ID : 14388454<br>
GENRE : Rock<br>
PUBLISHER : ST2 Music, Eagle Vision<br>
STYLE : Blues Rock, Southern Rock, Hard Rock<br>
WWW : <a href="https://www.discogs.com/release/14388454-ZZ-Top-Live-From-Texas" target="_blank" class="externalLink" rel="nofollow">https://www.discogs.com/release/14388454-ZZ-Top-Live-From-Texas</a><br>
<br>
Video<br>
ID : 1<br>
ID in the original source medium : 4113 (0x1011)<br>
Format : AVC<br>
Format/Info : Advanced Video Codec<br>
Format profile : High@L4.1<br>
Format settings : CABAC / 4 Ref Frames<br>
Format settings, CABAC : Yes<br>
Format settings, Reference frames : 4 frames<br>
Codec ID : V_MPEG4/ISO/AVC<br>
Duration : 5 min 6 s<br>
Bit rate mode : Variable<br>
Bit rate : 17.6 Mb/s<br>
Maximum bit rate : 33.0 Mb/s<br>
Width : 1 920 pixels<br>
Height : 1 080 pixels<br>
Display aspect ratio : 16:9<br>
Frame rate mode : Constant<br>
Frame rate : 29.970 (30000/1001) FPS<br>
Color space : YUV<br>
Chroma subsampling : 4:2:0<br>
Bit depth : 8 bits<br>
Scan type : MBAFF<br>
Scan type, store method : Interleaved fields<br>
Scan order : Top Field First<br>
Bits/(Pixel*Frame) : 0.283<br>
Stream size : 643 MiB (64%)<br>
Language : English<br>
Default : No<br>
Forced : No<br>
Color range : Limited<br>
Color primaries : BT.709<br>
Transfer characteristics : BT.709<br>
Matrix coefficients : BT.709<br>
Original source medium : Blu-ray<br>
<br>
Audio #1<br>
ID : 2<br>
ID in the original source medium : 4352 (0x1100)<br>
Format : PCM<br>
Format settings : Little / Signed<br>
Codec ID : A_PCM/INT/LIT<br>
Duration : 5 min 6 s<br>
Bit rate mode : Constant<br>
Bit rate : 2 304 kb/s<br>
Channel(s) : 2 channels<br>
Sampling rate : 48.0 kHz<br>
Frame rate : 30.000 FPS (1600 SPF)<br>
Bit depth : 24 bits<br>
Delay relative to video : 83 ms<br>
Stream size : 84.2 MiB (8%)<br>
Title : Stereo<br>
Language : English<br>
Default : Yes<br>
Forced : No<br>
Original source medium : Blu-ray<br>
<br>
Audio #2<br>
ID : 3<br>
ID in the original source medium : 4353 (0x1101)<br>
Format : AC-3<br>
Format/Info : Audio Coding 3<br>
Commercial name : Dolby Digital<br>
Codec ID : A_AC3<br>
Duration : 5 min 6 s<br>
Bit rate mode : Constant<br>
Bit rate : 640 kb/s<br>
Channel(s) : 6 channels<br>
Channel layout : L R C LFE Ls Rs<br>
Sampling rate : 48.0 kHz<br>
Frame rate : 31.250 FPS (1536 SPF)<br>
Compression mode : Lossy<br>
Delay relative to video : 98 ms<br>
Stream size : 23.4 MiB (2%)<br>
Title : Surround 5.1<br>
Language : English<br>
Service kind : Complete Main<br>
Default : No<br>
Forced : No<br>
Original source medium : Blu-ray<br>
<br>
Audio #3<br>
ID : 4<br>
ID in the original source medium : 4354 (0x1102)<br>
Format : DTS XLL<br>
Format/Info : Digital Theater Systems<br>
Commercial name : DTS-HD Master Audio<br>
Codec ID : A_DTS<br>
Duration : 5 min 6 s<br>
Bit rate mode : Variable<br>
Bit rate : 5 332 kb/s<br>
Channel(s) : 6 channels<br>
Channel layout : C L R Ls Rs LFE<br>
Sampling rate : 48.0 kHz<br>
Frame rate : 93.750 FPS (512 SPF)<br>
Bit depth : 24 bits<br>
Compression mode : Lossless<br>
Delay relative to video : 77 ms<br>
Stream size : 195 MiB (19%)<br>
Title : Surround 5.1<br>
Language : English<br>
Default : No<br>
Forced : No<br>
Original source medium : Blu-ray<br>
<br>
Audio #4<br>
ID : 5<br>
ID in the original source medium : 4354 (0x1102)<br>
Format : DTS<br>
Format/Info : Digital Theater Systems<br>
Codec ID : A_DTS<br>
Duration : 5 min 6 s<br>
Bit rate mode : Constant<br>
Bit rate : 1 509 kb/s<br>
Channel(s) : 6 channels<br>
Channel layout : C L R Ls Rs LFE<br>
Sampling rate : 48.0 kHz<br>
Frame rate : 93.750 FPS (512 SPF)<br>
Bit depth : 24 bits<br>
Compression mode : Lossy<br>
Delay relative to video : 77 ms<br>
Stream size : 55.1 MiB (6%)<br>
Title : Surround 5.1<br>
Language : English<br>
Default : No<br>
Forced : No<br>
Original source medium : Blu-ray<br>
<br>
Menu<br>
00:00:00.000 : en:Chapter 05<br>
<br>
General<br>
Unique ID : 195684388967401575428696180696984009765 (0x933771437EC02A75494D7DAD34C73C25)<br>
Complete name : D:\Video\ZZTOP\Split\1\Rough Boy.mkv<br>
Format : Matroska<br>
Format version : Version 4<br>
File size : 1.05 GiB<br>
Duration : 6 min 18 s<br>
Overall bit rate mode : Variable<br>
Overall bit rate : 23.7 Mb/s<br>
Movie name : Rough Boy<br>
Track name/Position : 10<br>
Encoded date : UTC 2023-06-06 20:45:25<br>
Writing application : mkvmerge v51.0.0 ('I Wish') 64-bit<br>
Writing library : libebml v1.4.0 + libmatroska v1.6.2<br>
Original source form : Blu-ray<br>
Comment : Bluray Rip by Freaky2003 (Sharemania)<br>
ARTIST : ZZ Top<br>
CATALOGID : ST2BD18004, ST2BD18004<br>
COUNTRY : Brazil<br>
DATE_RECORDED : 2008<br>
DISCOGS_RELEASE_ID : 14388454<br>
GENRE : Rock<br>
PUBLISHER : ST2 Music, Eagle Vision<br>
STYLE : Blues Rock, Southern Rock, Hard Rock<br>
WWW : <a href="https://www.discogs.com/release/14388454-ZZ-Top-Live-From-Texas" target="_blank" class="externalLink" rel="nofollow">https://www.discogs.com/release/14388454-ZZ-Top-Live-From-Texas</a><br>
<br>
Video<br>
ID : 1<br>
ID in the original source medium : 4113 (0x1011)<br>
Format : AVC<br>
Format/Info : Advanced Video Codec<br>
Format profile : High@L4.1<br>
Format settings : CABAC / 4 Ref Frames<br>
Format settings, CABAC : Yes<br>
Format settings, Reference frames : 4 frames<br>
Codec ID : V_MPEG4/ISO/AVC<br>
Duration : 6 min 18 s<br>
Bit rate mode : Variable<br>
Bit rate : 14.4 Mb/s<br>
Maximum bit rate : 33.0 Mb/s<br>
Width : 1 920 pixels<br>
Height : 1 080 pixels<br>
Display aspect ratio : 16:9<br>
Frame rate mode : Constant<br>
Frame rate : 29.970 (30000/1001) FPS<br>
Color space : YUV<br>
Chroma subsampling : 4:2:0<br>
Bit depth : 8 bits<br>
Scan type : MBAFF<br>
Scan type, store method : Interleaved fields<br>
Scan order : Top Field First<br>
Bits/(Pixel*Frame) : 0.231<br>
Stream size : 649 MiB (61%)<br>
Language : English<br>
Default : No<br>
Forced : No<br>
Color range : Limited<br>
Color primaries : BT.709<br>
Transfer characteristics : BT.709<br>
Matrix coefficients : BT.709<br>
Original source medium : Blu-ray<br>
<br>
Audio #1<br>
ID : 2<br>
ID in the original source medium : 4352 (0x1100)<br>
Format : PCM<br>
Format settings : Little / Signed<br>
Codec ID : A_PCM/INT/LIT<br>
Duration : 6 min 18 s<br>
Bit rate mode : Constant<br>
Bit rate : 2 304 kb/s<br>
Channel(s) : 2 channels<br>
Sampling rate : 48.0 kHz<br>
Frame rate : 30.000 FPS (1600 SPF)<br>
Bit depth : 24 bits<br>
Delay relative to video : 69 ms<br>
Stream size : 104 MiB (10%)<br>
Title : Stereo<br>
Language : English<br>
Default : Yes<br>
Forced : No<br>
Original source medium : Blu-ray<br>
<br>
Audio #2<br>
ID : 3<br>
ID in the original source medium : 4353 (0x1101)<br>
Format : AC-3<br>
Format/Info : Audio Coding 3<br>
Commercial name : Dolby Digital<br>
Codec ID : A_AC3<br>
Duration : 6 min 18 s<br>
Bit rate mode : Constant<br>
Bit rate : 640 kb/s<br>
Channel(s) : 6 channels<br>
Channel layout : L R C LFE Ls Rs<br>
Sampling rate : 48.0 kHz<br>
Frame rate : 31.250 FPS (1536 SPF)<br>
Compression mode : Lossy<br>
Delay relative to video : 81 ms<br>
Stream size : 28.9 MiB (3%)<br>
Title : Surround 5.1<br>
Language : English<br>
Service kind : Complete Main<br>
Default : No<br>
Forced : No<br>
Original source medium : Blu-ray<br>
<br>
Audio #3<br>
ID : 4<br>
ID in the original source medium : 4354 (0x1102)<br>
Format : DTS XLL<br>
Format/Info : Digital Theater Systems<br>
Commercial name : DTS-HD Master Audio<br>
Codec ID : A_DTS<br>
Duration : 6 min 18 s<br>
Bit rate mode : Variable<br>
Bit rate : 4 895 kb/s<br>
Channel(s) : 6 channels<br>
Channel layout : C L R Ls Rs LFE<br>
Sampling rate : 48.0 kHz<br>
Frame rate : 93.750 FPS (512 SPF)<br>
Bit depth : 24 bits<br>
Compression mode : Lossless<br>
Delay relative to video : 70 ms<br>
Stream size : 221 MiB (21%)<br>
Title : Surround 5.1<br>
Language : English<br>
Default : No<br>
Forced : No<br>
Original source medium : Blu-ray<br>
<br>
Audio #4<br>
ID : 5<br>
ID in the original source medium : 4354 (0x1102)<br>
Format : DTS<br>
Format/Info : Digital Theater Systems<br>
Codec ID : A_DTS<br>
Duration : 6 min 18 s<br>
Bit rate mode : Constant<br>
Bit rate : 1 509 kb/s<br>
Channel(s) : 6 channels<br>
Channel layout : C L R Ls Rs LFE<br>
Sampling rate : 48.0 kHz<br>
Frame rate : 93.750 FPS (512 SPF)<br>
Bit depth : 24 bits<br>
Compression mode : Lossy<br>
Delay relative to video : 70 ms<br>
Stream size : 68.2 MiB (6%)<br>
Title : Surround 5.1<br>
Language : English<br>
Default : No<br>
Forced : No<br>
Original source medium : Blu-ray<br>
<br>
Menu<br>
00:00:00.000 : en:Chapter 09 / en:Chapter 10<br>
<br>
General<br>
Unique ID : 73680021140509935053152555011651563514 (0x376E4182C717096EAF32C4FA8D466FFA)<br>
Complete name : D:\Video\ZZTOP\Split\1\Sharp Dressed Man.mkv<br>
Format : Matroska<br>
Format version : Version 4<br>
File size : 918 MiB<br>
Duration : 5 min 0 s<br>
Overall bit rate mode : Variable<br>
Overall bit rate : 25.6 Mb/s<br>
Movie name : Sharp Dressed Man<br>
Track name/Position : 13<br>
Encoded date : UTC 2023-06-06 20:45:25<br>
Writing application : mkvmerge v51.0.0 ('I Wish') 64-bit<br>
Writing library : libebml v1.4.0 + libmatroska v1.6.2<br>
Original source form : Blu-ray<br>
Comment : Bluray Rip by Freaky2003 (Sharemania)<br>
ARTIST : ZZ Top<br>
CATALOGID : ST2BD18004, ST2BD18004<br>
COUNTRY : Brazil<br>
DATE_RECORDED : 2008<br>
DISCOGS_RELEASE_ID : 14388454<br>
GENRE : Rock<br>
PUBLISHER : ST2 Music, Eagle Vision<br>
STYLE : Blues Rock, Southern Rock, Hard Rock<br>
WWW : <a href="https://www.discogs.com/release/14388454-ZZ-Top-Live-From-Texas" target="_blank" class="externalLink" rel="nofollow">https://www.discogs.com/release/14388454-ZZ-Top-Live-From-Texas</a><br>
<br>
Video<br>
ID : 1<br>
ID in the original source medium : 4113 (0x1011)<br>
Format : AVC<br>
Format/Info : Advanced Video Codec<br>
Format profile : High@L4.1<br>
Format settings : CABAC / 4 Ref Frames<br>
Format settings, CABAC : Yes<br>
Format settings, Reference frames : 4 frames<br>
Codec ID : V_MPEG4/ISO/AVC<br>
Duration : 5 min 0 s<br>
Bit rate mode : Variable<br>
Bit rate : 16.0 Mb/s<br>
Maximum bit rate : 33.0 Mb/s<br>
Width : 1 920 pixels<br>
Height : 1 080 pixels<br>
Display aspect ratio : 16:9<br>
Frame rate mode : Constant<br>
Frame rate : 29.970 (30000/1001) FPS<br>
Color space : YUV<br>
Chroma subsampling : 4:2:0<br>
Bit depth : 8 bits<br>
Scan type : MBAFF<br>
Scan type, store method : Interleaved fields<br>
Scan order : Top Field First<br>
Bits/(Pixel*Frame) : 0.257<br>
Stream size : 573 MiB (62%)<br>
Language : English<br>
Default : No<br>
Forced : No<br>
Color range : Limited<br>
Color primaries : BT.709<br>
Transfer characteristics : BT.709<br>
Matrix coefficients : BT.709<br>
Original source medium : Blu-ray<br>
<br>
Audio #1<br>
ID : 2<br>
ID in the original source medium : 4352 (0x1100)<br>
Format : PCM<br>
Format settings : Little / Signed<br>
Codec ID : A_PCM/INT/LIT<br>
Duration : 5 min 0 s<br>
Bit rate mode : Constant<br>
Bit rate : 2 304 kb/s<br>
Channel(s) : 2 channels<br>
Sampling rate : 48.0 kHz<br>
Frame rate : 30.000 FPS (1600 SPF)<br>
Bit depth : 24 bits<br>
Delay relative to video : 81 ms<br>
Stream size : 82.5 MiB (9%)<br>
Title : Stereo<br>
Language : English<br>
Default : Yes<br>
Forced : No<br>
Original source medium : Blu-ray<br>
<br>
Audio #2<br>
ID : 3<br>
ID in the original source medium : 4353 (0x1101)<br>
Format : AC-3<br>
Format/Info : Audio Coding 3<br>
Commercial name : Dolby Digital<br>
Codec ID : A_AC3<br>
Duration : 5 min 0 s<br>
Bit rate mode : Constant<br>
Bit rate : 640 kb/s<br>
Channel(s) : 6 channels<br>
Channel layout : L R C LFE Ls Rs<br>
Sampling rate : 48.0 kHz<br>
Frame rate : 31.250 FPS (1536 SPF)<br>
Compression mode : Lossy<br>
Delay relative to video : 90 ms<br>
Stream size : 22.9 MiB (2%)<br>
Title : Surround 5.1<br>
Language : English<br>
Service kind : Complete Main<br>
Default : No<br>
Forced : No<br>
Original source medium : Blu-ray<br>
<br>
Audio #3<br>
ID : 4<br>
ID in the original source medium : 4354 (0x1102)<br>
Format : DTS XLL<br>
Format/Info : Digital Theater Systems<br>
Commercial name : DTS-HD Master Audio<br>
Codec ID : A_DTS<br>
Duration : 5 min 0 s<br>
Bit rate mode : Variable<br>
Bit rate : 5 183 kb/s<br>
Channel(s) : 6 channels<br>
Channel layout : C L R Ls Rs LFE<br>
Sampling rate : 48.0 kHz<br>
Frame rate : 93.750 FPS (512 SPF)<br>
Bit depth : 24 bits<br>
Compression mode : Lossless<br>
Delay relative to video : 69 ms<br>
Stream size : 186 MiB (20%)<br>
Title : Surround 5.1<br>
Language : English<br>
Default : No<br>
Forced : No<br>
Original source medium : Blu-ray<br>
<br>
Audio #4<br>
ID : 5<br>
ID in the original source medium : 4354 (0x1102)<br>
Format : DTS<br>
Format/Info : Digital Theater Systems<br>
Codec ID : A_DTS<br>
Duration : 5 min 0 s<br>
Bit rate mode : Constant<br>
Bit rate : 1 509 kb/s<br>
Channel(s) : 6 channels<br>
Channel layout : C L R Ls Rs LFE<br>
Sampling rate : 48.0 kHz<br>
Frame rate : 93.750 FPS (512 SPF)<br>
Bit depth : 24 bits<br>
Compression mode : Lossy<br>
Delay relative to video : 69 ms<br>
Stream size : 54.0 MiB (6%)<br>
Title : Surround 5.1<br>
Language : English<br>
Default : No<br>
Forced : No<br>
Original source medium : Blu-ray<br>
<br>
Menu<br>
00:00:00.000 : en:Chapter 13<br>
<br>
General<br>
Unique ID : 162811289666245378716077435050006636448 (0x7A7C50558A8146EE6B1B138651BF67A0)<br>
Complete name : D:\Video\ZZTOP\Split\1\Tube Snake Boogie.mkv<br>
Format : Matroska<br>
Format version : Version 4<br>
File size : 608 MiB<br>
Duration : 2 min 59 s<br>
Overall bit rate mode : Variable<br>
Overall bit rate : 28.4 Mb/s<br>
Movie name : Tube Snake Boogie<br>
Track name/Position : 15<br>
Encoded date : UTC 2023-06-06 20:45:25<br>
Writing application : mkvmerge v51.0.0 ('I Wish') 64-bit<br>
Writing library : libebml v1.4.0 + libmatroska v1.6.2<br>
Original source form : Blu-ray<br>
Comment : Bluray Rip by Freaky2003 (Sharemania)<br>
ARTIST : ZZ Top<br>
CATALOGID : ST2BD18004, ST2BD18004<br>
COUNTRY : Brazil<br>
DATE_RECORDED : 2008<br>
DISCOGS_RELEASE_ID : 14388454<br>
GENRE : Rock<br>
PUBLISHER : ST2 Music, Eagle Vision<br>
STYLE : Blues Rock, Southern Rock, Hard Rock<br>
WWW : <a href="https://www.discogs.com/release/14388454-ZZ-Top-Live-From-Texas" target="_blank" class="externalLink" rel="nofollow">https://www.discogs.com/release/14388454-ZZ-Top-Live-From-Texas</a><br>
<br>
Video<br>
ID : 1<br>
ID in the original source medium : 4113 (0x1011)<br>
Format : AVC<br>
Format/Info : Advanced Video Codec<br>
Format profile : High@L4.1<br>
Format settings : CABAC / 4 Ref Frames<br>
Format settings, CABAC : Yes<br>
Format settings, Reference frames : 4 frames<br>
Codec ID : V_MPEG4/ISO/AVC<br>
Duration : 2 min 59 s<br>
Bit rate mode : Variable<br>
Bit rate : 18.8 Mb/s<br>
Maximum bit rate : 33.0 Mb/s<br>
Width : 1 920 pixels<br>
Height : 1 080 pixels<br>
Display aspect ratio : 16:9<br>
Frame rate mode : Constant<br>
Frame rate : 29.970 (30000/1001) FPS<br>
Color space : YUV<br>
Chroma subsampling : 4:2:0<br>
Bit depth : 8 bits<br>
Scan type : MBAFF<br>
Scan type, store method : Interleaved fields<br>
Scan order : Top Field First<br>
Bits/(Pixel*Frame) : 0.303<br>
Stream size : 402 MiB (66%)<br>
Language : English<br>
Default : No<br>
Forced : No<br>
Color range : Limited<br>
Color primaries : BT.709<br>
Transfer characteristics : BT.709<br>
Matrix coefficients : BT.709<br>
Original source medium : Blu-ray<br>
<br>
Audio #1<br>
ID : 2<br>
ID in the original source medium : 4352 (0x1100)<br>
Format : PCM<br>
Format settings : Little / Signed<br>
Codec ID : A_PCM/INT/LIT<br>
Duration : 2 min 59 s<br>
Bit rate mode : Constant<br>
Bit rate : 2 304 kb/s<br>
Channel(s) : 2 channels<br>
Sampling rate : 48.0 kHz<br>
Frame rate : 30.000 FPS (1600 SPF)<br>
Bit depth : 24 bits<br>
Delay relative to video : 96 ms<br>
Stream size : 49.3 MiB (8%)<br>
Title : Stereo<br>
Language : English<br>
Default : Yes<br>
Forced : No<br>
Original source medium : Blu-ray<br>
<br>
Audio #2<br>
ID : 3<br>
ID in the original source medium : 4353 (0x1101)<br>
Format : AC-3<br>
Format/Info : Audio Coding 3<br>
Commercial name : Dolby Digital<br>
Codec ID : A_AC3<br>
Duration : 2 min 59 s<br>
Bit rate mode : Constant<br>
Bit rate : 640 kb/s<br>
Channel(s) : 6 channels<br>
Channel layout : L R C LFE Ls Rs<br>
Sampling rate : 48.0 kHz<br>
Frame rate : 31.250 FPS (1536 SPF)<br>
Compression mode : Lossy<br>
Delay relative to video : 76 ms<br>
Stream size : 13.7 MiB (2%)<br>
Title : Surround 5.1<br>
Language : English<br>
Service kind : Complete Main<br>
Default : No<br>
Forced : No<br>
Original source medium : Blu-ray<br>
<br>
Audio #3<br>
ID : 4<br>
ID in the original source medium : 4354 (0x1102)<br>
Format : DTS XLL<br>
Format/Info : Digital Theater Systems<br>
Commercial name : DTS-HD Master Audio<br>
Codec ID : A_DTS<br>
Duration : 2 min 59 s<br>
Bit rate mode : Variable<br>
Bit rate : 5 138 kb/s<br>
Channel(s) : 6 channels<br>
Channel layout : C L R Ls Rs LFE<br>
Sampling rate : 48.0 kHz<br>
Frame rate : 93.750 FPS (512 SPF)<br>
Bit depth : 24 bits<br>
Compression mode : Lossless<br>
Delay relative to video : 76 ms<br>
Stream size : 110 MiB (18%)<br>
Title : Surround 5.1<br>
Language : English<br>
Default : No<br>
Forced : No<br>
Original source medium : Blu-ray<br>
<br>
Audio #4<br>
ID : 5<br>
ID in the original source medium : 4354 (0x1102)<br>
Format : DTS<br>
Format/Info : Digital Theater Systems<br>
Codec ID : A_DTS<br>
Duration : 2 min 59 s<br>
Bit rate mode : Constant<br>
Bit rate : 1 509 kb/s<br>
Channel(s) : 6 channels<br>
Channel layout : C L R Ls Rs LFE<br>
Sampling rate : 48.0 kHz<br>
Frame rate : 93.750 FPS (512 SPF)<br>
Bit depth : 24 bits<br>
Compression mode : Lossy<br>
Delay relative to video : 76 ms<br>
Stream size : 32.3 MiB (5%)<br>
Title : Surround 5.1<br>
Language : English<br>
Default : No<br>
Forced : No<br>
Original source medium : Blu-ray<br>
<br>
Menu<br>
00:00:00.000 : en:Chapter 14 / en:Chapter 15<br>
<br>
General<br>
Unique ID : 94563479760827390321987201048651117886 (0x47244383EB6B0923298C917939E2353E)<br>
Complete name : D:\Video\ZZTOP\Split\1\Tush.mkv<br>
Format : Matroska<br>
Format version : Version 4<br>
File size : 1.14 GiB<br>
Duration : 6 min 19 s<br>
Overall bit rate mode : Variable<br>
Overall bit rate : 25.8 Mb/s<br>
Movie name : Tush<br>
Track name/Position : 17<br>
Encoded date : UTC 2023-06-06 20:45:25<br>
Writing application : mkvmerge v51.0.0 ('I Wish') 64-bit<br>
Writing library : libebml v1.4.0 + libmatroska v1.6.2<br>
Original source form : Blu-ray<br>
Comment : Bluray Rip by Freaky2003 (Sharemania)<br>
ARTIST : ZZ Top<br>
CATALOGID : ST2BD18004, ST2BD18004<br>
COUNTRY : Brazil<br>
DATE_RECORDED : 2008<br>
DISCOGS_RELEASE_ID : 14388454<br>
GENRE : Rock<br>
PUBLISHER : ST2 Music, Eagle Vision<br>
STYLE : Blues Rock, Southern Rock, Hard Rock<br>
WWW : <a href="https://www.discogs.com/release/14388454-ZZ-Top-Live-From-Texas" target="_blank" class="externalLink" rel="nofollow">https://www.discogs.com/release/14388454-ZZ-Top-Live-From-Texas</a><br>
<br>
Video<br>
ID : 1<br>
ID in the original source medium : 4113 (0x1011)<br>
Format : AVC<br>
Format/Info : Advanced Video Codec<br>
Format profile : High@L4.1<br>
Format settings : CABAC / 4 Ref Frames<br>
Format settings, CABAC : Yes<br>
Format settings, Reference frames : 4 frames<br>
Codec ID : V_MPEG4/ISO/AVC<br>
Duration : 6 min 19 s<br>
Bit rate mode : Variable<br>
Bit rate : 16.4 Mb/s<br>
Maximum bit rate : 33.0 Mb/s<br>
Width : 1 920 pixels<br>
Height : 1 080 pixels<br>
Display aspect ratio : 16:9<br>
Frame rate mode : Constant<br>
Frame rate : 29.970 (30000/1001) FPS<br>
Color space : YUV<br>
Chroma subsampling : 4:2:0<br>
Bit depth : 8 bits<br>
Scan type : MBAFF<br>
Scan type, store method : Interleaved fields<br>
Scan order : Top Field First<br>
Bits/(Pixel*Frame) : 0.264<br>
Stream size : 742 MiB (63%)<br>
Language : English<br>
Default : No<br>
Forced : No<br>
Color range : Limited<br>
Color primaries : BT.709<br>
Transfer characteristics : BT.709<br>
Matrix coefficients : BT.709<br>
Original source medium : Blu-ray<br>
<br>
Audio #1<br>
ID : 2<br>
ID in the original source medium : 4352 (0x1100)<br>
Format : PCM<br>
Format settings : Little / Signed<br>
Codec ID : A_PCM/INT/LIT<br>
Duration : 6 min 19 s<br>
Bit rate mode : Constant<br>
Bit rate : 2 304 kb/s<br>
Channel(s) : 2 channels<br>
Sampling rate : 48.0 kHz<br>
Frame rate : 30.002 FPS (1600 SPF)<br>
Bit depth : 24 bits<br>
Delay relative to video : 16 ms<br>
Stream size : 104 MiB (9%)<br>
Title : Stereo<br>
Language : English<br>
Default : Yes<br>
Forced : No<br>
Original source medium : Blu-ray<br>
<br>
Audio #2<br>
ID : 3<br>
ID in the original source medium : 4353 (0x1101)<br>
Format : AC-3<br>
Format/Info : Audio Coding 3<br>
Commercial name : Dolby Digital<br>
Codec ID : A_AC3<br>
Duration : 6 min 19 s<br>
Bit rate mode : Constant<br>
Bit rate : 640 kb/s<br>
Channel(s) : 6 channels<br>
Channel layout : L R C LFE Ls Rs<br>
Sampling rate : 48.0 kHz<br>
Frame rate : 31.250 FPS (1536 SPF)<br>
Compression mode : Lossy<br>
Delay relative to video : 3 ms<br>
Stream size : 29.0 MiB (2%)<br>
Title : Surround 5.1<br>
Language : English<br>
Service kind : Complete Main<br>
Default : No<br>
Forced : No<br>
Original source medium : Blu-ray<br>
<br>
Audio #3<br>
ID : 4<br>
ID in the original source medium : 4354 (0x1102)<br>
Format : DTS XLL<br>
Format/Info : Digital Theater Systems<br>
Commercial name : DTS-HD Master Audio<br>
Codec ID : A_DTS<br>
Duration : 6 min 19 s<br>
Bit rate mode : Variable<br>
Bit rate : 4 985 kb/s<br>
Channel(s) : 6 channels<br>
Channel layout : C L R Ls Rs LFE<br>
Sampling rate : 48.0 kHz<br>
Frame rate : 93.750 FPS (512 SPF)<br>
Bit depth : 24 bits<br>
Compression mode : Lossless<br>
Delay relative to video : 3 ms<br>
Stream size : 226 MiB (19%)<br>
Title : Surround 5.1<br>
Language : English<br>
Default : No<br>
Forced : No<br>
Original source medium : Blu-ray<br>
<br>
Audio #4<br>
ID : 5<br>
ID in the original source medium : 4354 (0x1102)<br>
Format : DTS<br>
Format/Info : Digital Theater Systems<br>
Codec ID : A_DTS<br>
Duration : 6 min 19 s<br>
Bit rate mode : Constant<br>
Bit rate : 1 509 kb/s<br>
Channel(s) : 6 channels<br>
Channel layout : C L R Ls Rs LFE<br>
Sampling rate : 48.0 kHz<br>
Frame rate : 93.750 FPS (512 SPF)<br>
Bit depth : 24 bits<br>
Compression mode : Lossy<br>
Delay relative to video : 3 ms<br>
Stream size : 68.3 MiB (6%)<br>
Title : Surround 5.1<br>
Language : English<br>
Default : No<br>
Forced : No<br>
Original source medium : Blu-ray<br>
<br>
Menu<br>
00:00:00.000 : en:Chapter 16 / en:Chapter 17<br>
<br>
General<br>
Unique ID : 64461436657840635502075053033553600230 (0x307ED2346148CF560DDA626E413F1EE6)<br>
Complete name : D:\Video\ZZTOP\Split\1\Waitin' For The Bus.mkv<br>
Format : Matroska<br>
Format version : Version 4<br>
File size : 570 MiB<br>
Duration : 2 min 55 s<br>
Overall bit rate mode : Variable<br>
Overall bit rate : 27.3 Mb/s<br>
Movie name : Waitin' For The Bus<br>
Track name/Position : 2<br>
Encoded date : UTC 2023-06-06 20:45:25<br>
Writing application : mkvmerge v51.0.0 ('I Wish') 64-bit<br>
Writing library : libebml v1.4.0 + libmatroska v1.6.2<br>
Original source form : Blu-ray<br>
Comment : Bluray Rip by Freaky2003 (Sharemania)<br>
ARTIST : ZZ Top<br>
CATALOGID : ST2BD18004, ST2BD18004<br>
COUNTRY : Brazil<br>
DATE_RECORDED : 2008<br>
DISCOGS_RELEASE_ID : 14388454<br>
GENRE : Rock<br>
PUBLISHER : ST2 Music, Eagle Vision<br>
STYLE : Blues Rock, Southern Rock, Hard Rock<br>
WWW : <a href="https://www.discogs.com/release/14388454-ZZ-Top-Live-From-Texas" target="_blank" class="externalLink" rel="nofollow">https://www.discogs.com/release/14388454-ZZ-Top-Live-From-Texas</a><br>
<br>
Video<br>
ID : 1<br>
ID in the original source medium : 4113 (0x1011)<br>
Format : AVC<br>
Format/Info : Advanced Video Codec<br>
Format profile : High@L4.1<br>
Format settings : CABAC / 4 Ref Frames<br>
Format settings, CABAC : Yes<br>
Format settings, Reference frames : 4 frames<br>
Codec ID : V_MPEG4/ISO/AVC<br>
Duration : 2 min 54 s<br>
Bit rate mode : Variable<br>
Bit rate : 17.7 Mb/s<br>
Maximum bit rate : 33.0 Mb/s<br>
Width : 1 920 pixels<br>
Height : 1 080 pixels<br>
Display aspect ratio : 16:9<br>
Frame rate mode : Constant<br>
Frame rate : 29.970 (30000/1001) FPS<br>
Color space : YUV<br>
Chroma subsampling : 4:2:0<br>
Bit depth : 8 bits<br>
Scan type : MBAFF<br>
Scan type, store method : Interleaved fields<br>
Scan order : Top Field First<br>
Bits/(Pixel*Frame) : 0.285<br>
Stream size : 369 MiB (65%)<br>
Language : English<br>
Default : No<br>
Forced : No<br>
Color range : Limited<br>
Color primaries : BT.709<br>
Transfer characteristics : BT.709<br>
Matrix coefficients : BT.709<br>
Original source medium : Blu-ray<br>
<br>
Audio #1<br>
ID : 2<br>
ID in the original source medium : 4352 (0x1100)<br>
Format : PCM<br>
Format settings : Little / Signed<br>
Codec ID : A_PCM/INT/LIT<br>
Duration : 2 min 55 s<br>
Bit rate mode : Constant<br>
Bit rate : 2 304 kb/s<br>
Channel(s) : 2 channels<br>
Sampling rate : 48.0 kHz<br>
Frame rate : 30.000 FPS (1600 SPF)<br>
Bit depth : 24 bits<br>
Delay relative to video : 2 ms<br>
Stream size : 48.1 MiB (8%)<br>
Title : Stereo<br>
Language : English<br>
Default : Yes<br>
Forced : No<br>
Original source medium : Blu-ray<br>
<br>
Audio #2<br>
ID : 3<br>
ID in the original source medium : 4353 (0x1101)<br>
Format : AC-3<br>
Format/Info : Audio Coding 3<br>
Commercial name : Dolby Digital<br>
Codec ID : A_AC3<br>
Duration : 2 min 55 s<br>
Bit rate mode : Constant<br>
Bit rate : 640 kb/s<br>
Channel(s) : 6 channels<br>
Channel layout : L R C LFE Ls Rs<br>
Sampling rate : 48.0 kHz<br>
Frame rate : 31.250 FPS (1536 SPF)<br>
Compression mode : Lossy<br>
Delay relative to video : 19 ms<br>
Stream size : 13.4 MiB (2%)<br>
Title : Surround 5.1<br>
Language : English<br>
Service kind : Complete Main<br>
Default : No<br>
Forced : No<br>
Original source medium : Blu-ray<br>
<br>
Audio #3<br>
ID : 4<br>
ID in the original source medium : 4354 (0x1102)<br>
Format : DTS XLL<br>
Format/Info : Digital Theater Systems<br>
Commercial name : DTS-HD Master Audio<br>
Codec ID : A_DTS<br>
Duration : 2 min 55 s<br>
Bit rate mode : Variable<br>
Bit rate : 5 155 kb/s<br>
Channel(s) : 6 channels<br>
Channel layout : C L R Ls Rs LFE<br>
Sampling rate : 48.0 kHz<br>
Frame rate : 93.750 FPS (512 SPF)<br>
Bit depth : 24 bits<br>
Compression mode : Lossless<br>
Delay relative to video : 8 ms<br>
Stream size : 108 MiB (19%)<br>
Title : Surround 5.1<br>
Language : English<br>
Default : No<br>
Forced : No<br>
Original source medium : Blu-ray<br>
<br>
Audio #4<br>
ID : 5<br>
ID in the original source medium : 4354 (0x1102)<br>
Format : DTS<br>
Format/Info : Digital Theater Systems<br>
Codec ID : A_DTS<br>
Duration : 2 min 55 s<br>
Bit rate mode : Constant<br>
Bit rate : 1 509 kb/s<br>
Channel(s) : 6 channels<br>
Channel layout : C L R Ls Rs LFE<br>
Sampling rate : 48.0 kHz<br>
Frame rate : 93.750 FPS (512 SPF)<br>
Bit depth : 24 bits<br>
Compression mode : Lossy<br>
Delay relative to video : 8 ms<br>
Stream size : 31.5 MiB (6%)<br>
Title : Surround 5.1<br>
Language : English<br>
Default : No<br>
Forced : No<br>
Original source medium : Blu-ray<br>
<br>
Menu<br>
00:00:00.000 : en:Chapter 02</div>
</div><br>
<b><span style="font-size: 18px">Download:</span></b><br>
<span style="font-size: 12px">
<div class="bbCodeBlock bbCodeVfcHH HiddenContent">
<div class="attribution type">Hidden Content:</div>
<blockquote>You must either reply or click 'Like' to see the hidden information contained here.</blockquote>
</div>
<div class="bbCodeBlock bbCodeQuote">
<aside>
<blockquote class="quoteContainer"><div class="quote">The Bonus content will be uploaded soon!</div><div class="quoteExpand">Click to expand...</div></blockquote>
</aside>
</div></span>
<div class="messageTextEndMarker">&nbsp;</div>
</blockquote>
</article>]]></description>
                <author><![CDATA[Freaky2003]]></author>
                </item>

                
                <item>
                <title><![CDATA[【Albums (lossless)】WAV - Little Boots - Nocturnes [Japan, CD 16bits/44.1kHz]]]></title>
                <link><![CDATA[https://sharemania.us/threads/little-boots-nocturnes-japan-cd-16bits-44-1khz.222172/]]></link>
                <description><![CDATA[<article>
<blockquote class="messageText SelectQuoteContainer ugc baseHtml">
<div style="text-align: center"><img src="https://i.imgur.com/Zgrh9O9.jpg" class="bbCodeImage LbImage" alt="[​IMG]" data-url="https://i.imgur.com/Zgrh9O9.jpg" style=""><br>
<div class="bbCodeBlock bbCodeCode">
<div class="type">Code:</div>
<pre>Label: On Repeat Records / Hostess Entertainment Unlimited – LBOR001CDJ
Format: CD, Stereo
Country: Japan
Released: 06 May 2013</pre>
</div>1. Motorway<br>
2. Confusion<br>
3. Broken Record<br>
4. Shake<br>
5. Beat Beat<br>
6. Every Night I Say a Prayer<br>
7. Crescendo<br>
8. Strangers<br>
9. All for You<br>
10. Satellite<br>
<b><i><span style="font-size: 12px">Japan Bonus Track</span></i></b><br>
11. Hush<br>
<div class="bbCodeBlock bbCodeVfcHH HiddenContent">
<div class="attribution type">Hidden Content:</div>
<blockquote>You must reply before you can see the hidden data contained here.</blockquote>
</div></div>
<div class="messageTextEndMarker">&nbsp;</div>
</blockquote>
</article>]]></description>
                <author><![CDATA[verth]]></author>
                </item>

                
                <item>
                <title><![CDATA[【UPSCALED】David Guetta - The World is Mine (AI Upscaled 1080P)]]></title>
                <link><![CDATA[https://sharemania.us/threads/david-guetta-the-world-is-mine-ai-upscaled-1080p.222170/]]></link>
                <description><![CDATA[<article>
<blockquote class="messageText SelectQuoteContainer ugc baseHtml">
<a href="https://postimg.cc/5Xyj8BWJ" target="_blank" class="externalLink" rel="nofollow"><img src="https://i.postimg.cc/5Xyj8BWJ/David-Guetta-The-World-is-Mine-1080-P-Remastered-mp4-thumbs-2023-06-06-23-43-24.jpg" class="bbCodeImage LbImage" alt="[​IMG]" data-url="https://i.postimg.cc/5Xyj8BWJ/David-Guetta-The-World-is-Mine-1080-P-Remastered-mp4-thumbs-2023-06-06-23-43-24.jpg"></a><br>
<br>
<div class="bbCodeBlock bbCodeVfcHH HiddenContent">
<div class="attribution type">Hidden Content:</div>
<blockquote>You must either reply or click 'Like' to see the hidden information contained here.</blockquote>
</div>
<div class="messageTextEndMarker">&nbsp;</div>
</blockquote>
</article>]]></description>
                <author><![CDATA[djalf77]]></author>
                </item>

                
                <item>
                <title><![CDATA[【Singles (lossless)】[REQ AUDIO]  Cigarettes After Sex (24bit flac)]]></title>
                <link><![CDATA[https://sharemania.us/threads/req-audio-cigarettes-after-sex-24bit-flac.222168/]]></link>
                <description><![CDATA[<article>
<blockquote class="messageText SelectQuoteContainer ugc baseHtml">
Here are some of the qobuz links:<br>
(Preferably in 24bit quality)<br>
<br>
Pistol - Cigarettes After Sex<br>
<br>
<a href="https://www.qobuz.com/be-nl/album/pistol-cigarettes-after-sex/zyyxz6qc1e88a" target="_blank" class="externalLink" rel="nofollow">https://www.qobuz.com/be-nl/album/pistol-cigarettes-after-sex/zyyxz6qc1e88a</a><br>
<br>
You're All I Want - Cigarettes After Sex<br>
<br>
<a href="https://www.qobuz.com/be-nl/album/youre-all-i-want-cigarettes-after-sex/shf88u9h78fyb" target="_blank" class="externalLink" rel="nofollow">https://www.qobuz.com/be-nl/album/youre-all-i-want-cigarettes-after-sex/shf88u9h78fyb</a><br>
<br>
Crush - Cigarettes After Sex<br>
<br>
<a href="https://www.qobuz.com/be-nl/album/crush-cigarettes-after-sex/gzl9q21bszwvc" target="_blank" class="externalLink" rel="nofollow">https://www.qobuz.com/be-nl/album/crush-cigarettes-after-sex/gzl9q21bszwvc</a>
<div class="messageTextEndMarker">&nbsp;</div>
</blockquote>
</article>]]></description>
                <author><![CDATA[MadeAcc]]></author>
                </item>

                
                <item>
                <title><![CDATA[【UPSCALED】David Vendetta feat Akram - Unidos Para La Musica (AI Upscaled 1080P)]]></title>
                <link><![CDATA[https://sharemania.us/threads/david-vendetta-feat-akram-unidos-para-la-musica-ai-upscaled-1080p.222173/]]></link>
                <description><![CDATA[<article>
<blockquote class="messageText SelectQuoteContainer ugc baseHtml">
<a href="https://postimg.cc/hzhVtXK4" target="_blank" class="externalLink" rel="nofollow"><img src="https://i.postimg.cc/hzhVtXK4/David-Vendetta-feat-Akram-Unidos-Para-La-Musica-1080-P-Remastered-mp4-thumbs-2023-06-07-00-08-39.jpg" class="bbCodeImage LbImage" alt="[​IMG]" data-url="https://i.postimg.cc/hzhVtXK4/David-Vendetta-feat-Akram-Unidos-Para-La-Musica-1080-P-Remastered-mp4-thumbs-2023-06-07-00-08-39.jpg"></a><br>
<br>
<div class="bbCodeBlock bbCodeVfcHH HiddenContent">
<div class="attribution type">Hidden Content:</div>
<blockquote>You must either reply or click 'Like' to see the hidden information contained here.</blockquote>
</div>
<div class="messageTextEndMarker">&nbsp;</div>
</blockquote>
</article>]]></description>
                <author><![CDATA[djalf77]]></author>
                </item>

                </channel></rss>